<svg xmlns="http://www.w3.org/2000/svg" width="1024" height="1024" viewBox="0 0 1024 1024" role="img" aria-label="Salmon Repeater hands"><defs>
      <radialGradient id="dial" cx="38%" cy="31%" r="74%"><stop stop-color="#f1baa0"/><stop offset=".55" stop-color="#c88970"/><stop offset="1" stop-color="#f1baa0"/></radialGradient>
      <linearGradient id="steel" x1="0" y1="0" x2="1" y2="1"><stop stop-color="#f8fafb"/><stop offset=".25" stop-color="#c8bfae"/><stop offset=".52" stop-color="#535961"/><stop offset=".75" stop-color="#c8bfae"/><stop offset="1" stop-color="#f7f8f6"/></linearGradient>
      <linearGradient id="hand" x1="0" y1="0" x2="1" y2="1"><stop stop-color="#28211e"/><stop offset=".48" stop-color="#c8bfae"/><stop offset=".52" stop-color="#fff"/><stop offset="1" stop-color="#28211e"/></linearGradient>
      <filter id="shadow" x="-30%" y="-30%" width="160%" height="160%"><feDropShadow dx="0" dy="10" stdDeviation="12" flood-color="#000" flood-opacity=".5"/></filter>
      <filter id="soft" x="-30%" y="-30%" width="160%" height="160%"><feGaussianBlur stdDeviation="5"/></filter>
    </defs><g filter="url(#shadow)"><g transform="rotate(304 512 512)"><path d="M507 550 L506 344 A27 27 0 1 1 518 344 L517 550Z M512 307 A13 13 0 1 0 512 333 A13 13 0 1 0 512 307" fill="#28211e" fill-rule="evenodd"/></g><g transform="rotate(54 512 512)"><path d="M508 552 L507 191 A24 24 0 1 1 517 191 L516 552Z M512 158 A12 12 0 1 0 512 182 A12 12 0 1 0 512 158" fill="#28211e" fill-rule="evenodd"/></g><g transform="rotate(216 512 512)"><line x1="512" y1="602" x2="512" y2="118" stroke="#723a36" stroke-width="7" stroke-linecap="round"/><path d="M512 105 C548 156 540 184 512 184 C484 184 476 156 512 105Z" fill="none" stroke="#723a36" stroke-width="7"/></g><circle cx="512" cy="512" r="31" fill="url(#steel)" stroke="#f1baa0" stroke-width="7"/><circle cx="512" cy="512" r="10" fill="#723a36"/></g></svg>
