<svg xmlns="http://www.w3.org/2000/svg" width="900" height="1100" viewBox="0 0 900 1100" role="img" aria-label="Default Alive T-shirt back">
    <defs>
      <filter id="shadow" x="-20%" y="-20%" width="140%" height="150%"><feDropShadow dx="0" dy="24" stdDeviation="24" flood-color="#000" flood-opacity=".38"/></filter>
      <linearGradient id="cloth" x1="0" y1="0" x2="1" y2="1"><stop stop-color="#fff" stop-opacity=".12"/><stop offset=".3" stop-color="#151513"/><stop offset="1" stop-color="#000" stop-opacity=".16"/></linearGradient>
      <clipPath id="shirtClip"><path d="M236 156 L340 94 Q450 148 560 94 L664 156 L850 290 L734 420 L670 368 L700 1010 L200 1010 L230 368 L166 420 L50 290Z"/></clipPath>
      <clipPath id="printSafe"><rect x="218" y="258" width="464" height="515" rx="8"/></clipPath>
    </defs>
    <path d="M236 156 L340 94 Q450 148 560 94 L664 156 L850 290 L734 420 L670 368 L700 1010 L200 1010 L230 368 L166 420 L50 290Z" fill="#151513" filter="url(#shadow)"/><path d="M236 156 L340 94 Q450 148 560 94 L664 156 L850 290 L734 420 L670 368 L700 1010 L200 1010 L230 368 L166 420 L50 290Z" fill="url(#cloth)" opacity=".55"/>
    <path d="M340 94 Q450 220 560 94 Q535 78 512 70 Q450 112 388 70 Q365 78 340 94Z" fill="#080808" opacity=".75"/>
    <path d="M236 156 Q272 235 230 368 M664 156 Q628 235 670 368" fill="none" stroke="#fff" stroke-opacity=".12" stroke-width="5"/>
    <g clip-path="url(#shirtClip)"><g clip-path="url(#printSafe)"><g transform="translate(450 505) rotate(-5)"><text x="-9" y="-66" text-anchor="middle" font-family="Arial Black" font-size="65" fill="#ee503d">DEFAULT</text><text x="9" y="-49" text-anchor="middle" font-family="Arial Black" font-size="65" fill="#f3efe4">DEFAULT</text><text y="25" text-anchor="middle" font-family="Arial Black" font-size="78" fill="#f3efe4">ALIVE</text><path d="M-196 54 L-60 35 44 69 196 45" fill="none" stroke="#ee503d" stroke-width="16"/><text y="114" text-anchor="middle" font-family="monospace" font-size="18" fill="#f3efe4" letter-spacing="4">BURN LESS / BUILD MORE</text></g></g></g>
    </svg>
