<svg xmlns="http://www.w3.org/2000/svg" width="900" height="1100" viewBox="0 0 900 1100" role="img" aria-label="Synthetic T-shirt concept">
    <defs><filter id="shadow" x="-20%" y="-20%" width="140%" height="150%"><feDropShadow dx="0" dy="24" stdDeviation="24" flood-color="#000" flood-opacity=".38"/></filter><linearGradient id="cloth" x1="0" y1="0" x2="1" y2="1"><stop stop-color="#fff" stop-opacity=".12"/><stop offset=".3" stop-color="#e7dfd2"/><stop offset="1" stop-color="#000" stop-opacity=".16"/></linearGradient></defs>
    <path d="M236 156 L340 94 Q450 148 560 94 L664 156 L850 290 L734 420 L670 368 L700 1010 L200 1010 L230 368 L166 420 L50 290Z" fill="#e7dfd2" filter="url(#shadow)"/><path d="M236 156 L340 94 Q450 148 560 94 L664 156 L850 290 L734 420 L670 368 L700 1010 L200 1010 L230 368 L166 420 L50 290Z" fill="url(#cloth)" opacity=".55"/>
    <path d="M340 94 Q450 220 560 94 Q535 78 512 70 Q450 112 388 70 Q365 78 340 94Z" fill="#080808" opacity=".75"/>
    <path d="M236 156 Q272 235 230 368 M664 156 Q628 235 670 368" fill="none" stroke="#fff" stroke-opacity=".12" stroke-width="5"/>
    <g transform="translate(450 515)"><ellipse rx="238" ry="126" fill="none" stroke="#e3453c" stroke-width="17" transform="rotate(-24)"/><ellipse rx="238" ry="126" fill="none" stroke="#181514" stroke-width="4" transform="rotate(31)"/><circle r="48" fill="#e3453c"/><text x="0" y="-178" text-anchor="middle" font-family="Arial Black" font-size="72" fill="#181514">SYNTHETIC</text><text x="0" y="211" text-anchor="middle" font-family="monospace" font-size="18" fill="#181514" letter-spacing="4">DATA / GENERATED</text></g>
    </svg>
