<svg xmlns="http://www.w3.org/2000/svg" width="900" height="1100" viewBox="0 0 900 1100" role="img" aria-label="Compute Coven T-shirt back">
    <defs>
      <filter id="shadow" x="-20%" y="-20%" width="140%" height="150%"><feDropShadow dx="0" dy="24" stdDeviation="24" flood-color="#000" flood-opacity=".38"/></filter>
      <linearGradient id="cloth" x1="0" y1="0" x2="1" y2="1"><stop stop-color="#fff" stop-opacity=".12"/><stop offset=".3" stop-color="#121416"/><stop offset="1" stop-color="#000" stop-opacity=".16"/></linearGradient>
      <clipPath id="shirtClip"><path d="M236 156 L340 94 Q450 148 560 94 L664 156 L850 290 L734 420 L670 368 L700 1010 L200 1010 L230 368 L166 420 L50 290Z"/></clipPath>
      <clipPath id="printSafe"><rect x="218" y="258" width="464" height="515" rx="8"/></clipPath>
    </defs>
    <path d="M236 156 L340 94 Q450 148 560 94 L664 156 L850 290 L734 420 L670 368 L700 1010 L200 1010 L230 368 L166 420 L50 290Z" fill="#121416" filter="url(#shadow)"/><path d="M236 156 L340 94 Q450 148 560 94 L664 156 L850 290 L734 420 L670 368 L700 1010 L200 1010 L230 368 L166 420 L50 290Z" fill="url(#cloth)" opacity=".55"/>
    <path d="M340 94 Q450 220 560 94 Q535 78 512 70 Q450 112 388 70 Q365 78 340 94Z" fill="#080808" opacity=".75"/>
    <path d="M236 156 Q272 235 230 368 M664 156 Q628 235 670 368" fill="none" stroke="#fff" stroke-opacity=".12" stroke-width="5"/>
    <g clip-path="url(#shirtClip)"><g clip-path="url(#printSafe)"><g transform="translate(450 510)"><path d="M0 -210 C48 -168 91 -185 111 -139 C132 -91 85 -70 112 -32 C142 10 196 -2 202 48 C207 93 156 112 118 94 C140 150 94 196 48 165 C28 151 17 128 0 102 C-17 128 -28 151 -48 165 C-94 196 -140 150 -118 94 C-156 112 -207 93 -202 48 C-196 -2 -142 10 -112 -32 C-85 -70 -132 -91 -111 -139 C-91 -185 -48 -168 0 -210Z" fill="none" stroke="#8c9298" stroke-width="12"/><circle r="112" fill="none" stroke="#eee9de" stroke-width="5"/><text y="-13" text-anchor="middle" font-family="Georgia" font-size="48" font-weight="700" fill="#eee9de">COMPUTE</text><text y="48" text-anchor="middle" font-family="Georgia" font-size="55" font-weight="700" fill="#eee9de">COVEN</text><text y="137" text-anchor="middle" font-family="monospace" font-size="15" fill="#eee9de" letter-spacing="4">SUMMON MORE GPUs</text></g></g></g>
    </svg>
