<svg xmlns="http://www.w3.org/2000/svg" width="1024" height="1024" viewBox="0 0 1024 1024" role="img" aria-label="Meridian GMT preview"><defs>
      <radialGradient id="dial" cx="38%" cy="31%" r="74%"><stop stop-color="#030405"/><stop offset=".55" stop-color="#111419"/><stop offset="1" stop-color="#030405"/></radialGradient>
      <linearGradient id="steel" x1="0" y1="0" x2="1" y2="1"><stop stop-color="#f8fafb"/><stop offset=".25" stop-color="#b9c1c8"/><stop offset=".52" stop-color="#535961"/><stop offset=".75" stop-color="#b9c1c8"/><stop offset="1" stop-color="#f7f8f6"/></linearGradient>
      <linearGradient id="hand" x1="0" y1="0" x2="1" y2="1"><stop stop-color="#f5f2e9"/><stop offset=".48" stop-color="#b9c1c8"/><stop offset=".52" stop-color="#fff"/><stop offset="1" stop-color="#f5f2e9"/></linearGradient>
      <filter id="shadow" x="-30%" y="-30%" width="160%" height="160%"><feDropShadow dx="0" dy="10" stdDeviation="12" flood-color="#000" flood-opacity=".5"/></filter>
      <filter id="soft" x="-30%" y="-30%" width="160%" height="160%"><feGaussianBlur stdDeviation="5"/></filter>
    </defs><circle cx="512" cy="512" r="482" fill="url(#steel)" filter="url(#shadow)"/><line x1="512.0" y1="74.0" x2="512.0" y2="35.0" stroke="#f2f1eb" stroke-width="8" opacity="0.68" stroke-linecap="round"/><line x1="557.8" y1="76.4" x2="561.9" y2="37.6" stroke="#f2f1eb" stroke-width="8" opacity="0.68" stroke-linecap="round"/><line x1="603.1" y1="83.6" x2="611.2" y2="45.4" stroke="#f2f1eb" stroke-width="8" opacity="0.68" stroke-linecap="round"/><line x1="647.3" y1="95.4" x2="659.4" y2="58.3" stroke="#f2f1eb" stroke-width="8" opacity="0.68" stroke-linecap="round"/><line x1="690.2" y1="111.9" x2="706.0" y2="76.2" stroke="#f2f1eb" stroke-width="8" opacity="0.68" stroke-linecap="round"/><line x1="731.0" y1="132.7" x2="750.5" y2="98.9" stroke="#f2f1eb" stroke-width="8" opacity="0.68" stroke-linecap="round"/><line x1="769.4" y1="157.7" x2="792.4" y2="126.1" stroke="#f2f1eb" stroke-width="8" opacity="0.68" stroke-linecap="round"/><line x1="805.1" y1="186.5" x2="831.2" y2="157.5" stroke="#f2f1eb" stroke-width="8" opacity="0.68" stroke-linecap="round"/><line x1="837.5" y1="218.9" x2="866.5" y2="192.8" stroke="#f2f1eb" stroke-width="8" opacity="0.68" stroke-linecap="round"/><line x1="866.3" y1="254.6" x2="897.9" y2="231.6" stroke="#f2f1eb" stroke-width="8" opacity="0.68" stroke-linecap="round"/><line x1="891.3" y1="293.0" x2="925.1" y2="273.5" stroke="#f2f1eb" stroke-width="8" opacity="0.68" stroke-linecap="round"/><line x1="912.1" y1="333.8" x2="947.8" y2="318.0" stroke="#f2f1eb" stroke-width="8" opacity="0.68" stroke-linecap="round"/><line x1="928.6" y1="376.7" x2="965.7" y2="364.6" stroke="#f2f1eb" stroke-width="8" opacity="0.68" stroke-linecap="round"/><line x1="940.4" y1="420.9" x2="978.6" y2="412.8" stroke="#f2f1eb" stroke-width="8" opacity="0.68" stroke-linecap="round"/><line x1="947.6" y1="466.2" x2="986.4" y2="462.1" stroke="#f2f1eb" stroke-width="8" opacity="0.68" stroke-linecap="round"/><line x1="950.0" y1="512.0" x2="989.0" y2="512.0" stroke="#f2f1eb" stroke-width="8" opacity="0.68" stroke-linecap="round"/><line x1="947.6" y1="557.8" x2="986.4" y2="561.9" stroke="#f2f1eb" stroke-width="8" opacity="0.68" stroke-linecap="round"/><line x1="940.4" y1="603.1" x2="978.6" y2="611.2" stroke="#f2f1eb" stroke-width="8" opacity="0.68" stroke-linecap="round"/><line x1="928.6" y1="647.3" x2="965.7" y2="659.4" stroke="#f2f1eb" stroke-width="8" opacity="0.68" stroke-linecap="round"/><line x1="912.1" y1="690.2" x2="947.8" y2="706.0" stroke="#f2f1eb" stroke-width="8" opacity="0.68" stroke-linecap="round"/><line x1="891.3" y1="731.0" x2="925.1" y2="750.5" stroke="#f2f1eb" stroke-width="8" opacity="0.68" stroke-linecap="round"/><line x1="866.3" y1="769.4" x2="897.9" y2="792.4" stroke="#f2f1eb" stroke-width="8" opacity="0.68" stroke-linecap="round"/><line x1="837.5" y1="805.1" x2="866.5" y2="831.2" stroke="#f2f1eb" stroke-width="8" opacity="0.68" stroke-linecap="round"/><line x1="805.1" y1="837.5" x2="831.2" y2="866.5" stroke="#f2f1eb" stroke-width="8" opacity="0.68" stroke-linecap="round"/><line x1="769.4" y1="866.3" x2="792.4" y2="897.9" stroke="#f2f1eb" stroke-width="8" opacity="0.68" stroke-linecap="round"/><line x1="731.0" y1="891.3" x2="750.5" y2="925.1" stroke="#f2f1eb" stroke-width="8" opacity="0.68" stroke-linecap="round"/><line x1="690.2" y1="912.1" x2="706.0" y2="947.8" stroke="#f2f1eb" stroke-width="8" opacity="0.68" stroke-linecap="round"/><line x1="647.3" y1="928.6" x2="659.4" y2="965.7" stroke="#f2f1eb" stroke-width="8" opacity="0.68" stroke-linecap="round"/><line x1="603.1" y1="940.4" x2="611.2" y2="978.6" stroke="#f2f1eb" stroke-width="8" opacity="0.68" stroke-linecap="round"/><line x1="557.8" y1="947.6" x2="561.9" y2="986.4" stroke="#f2f1eb" stroke-width="8" opacity="0.68" stroke-linecap="round"/><line x1="512.0" y1="950.0" x2="512.0" y2="989.0" stroke="#f2f1eb" stroke-width="8" opacity="0.68" stroke-linecap="round"/><line x1="466.2" y1="947.6" x2="462.1" y2="986.4" stroke="#f2f1eb" stroke-width="8" opacity="0.68" stroke-linecap="round"/><line x1="420.9" y1="940.4" x2="412.8" y2="978.6" stroke="#f2f1eb" stroke-width="8" opacity="0.68" stroke-linecap="round"/><line x1="376.7" y1="928.6" x2="364.6" y2="965.7" stroke="#f2f1eb" stroke-width="8" opacity="0.68" stroke-linecap="round"/><line x1="333.8" y1="912.1" x2="318.0" y2="947.8" stroke="#f2f1eb" stroke-width="8" opacity="0.68" stroke-linecap="round"/><line x1="293.0" y1="891.3" x2="273.5" y2="925.1" stroke="#f2f1eb" stroke-width="8" opacity="0.68" stroke-linecap="round"/><line x1="254.6" y1="866.3" x2="231.6" y2="897.9" stroke="#f2f1eb" stroke-width="8" opacity="0.68" stroke-linecap="round"/><line x1="218.9" y1="837.5" x2="192.8" y2="866.5" stroke="#f2f1eb" stroke-width="8" opacity="0.68" stroke-linecap="round"/><line x1="186.5" y1="805.1" x2="157.5" y2="831.2" stroke="#f2f1eb" stroke-width="8" opacity="0.68" stroke-linecap="round"/><line x1="157.7" y1="769.4" x2="126.1" y2="792.4" stroke="#f2f1eb" stroke-width="8" opacity="0.68" stroke-linecap="round"/><line x1="132.7" y1="731.0" x2="98.9" y2="750.5" stroke="#f2f1eb" stroke-width="8" opacity="0.68" stroke-linecap="round"/><line x1="111.9" y1="690.2" x2="76.2" y2="706.0" stroke="#f2f1eb" stroke-width="8" opacity="0.68" stroke-linecap="round"/><line x1="95.4" y1="647.3" x2="58.3" y2="659.4" stroke="#f2f1eb" stroke-width="8" opacity="0.68" stroke-linecap="round"/><line x1="83.6" y1="603.1" x2="45.4" y2="611.2" stroke="#f2f1eb" stroke-width="8" opacity="0.68" stroke-linecap="round"/><line x1="76.4" y1="557.8" x2="37.6" y2="561.9" stroke="#f2f1eb" stroke-width="8" opacity="0.68" stroke-linecap="round"/><line x1="74.0" y1="512.0" x2="35.0" y2="512.0" stroke="#f2f1eb" stroke-width="8" opacity="0.68" stroke-linecap="round"/><line x1="76.4" y1="466.2" x2="37.6" y2="462.1" stroke="#f2f1eb" stroke-width="8" opacity="0.68" stroke-linecap="round"/><line x1="83.6" y1="420.9" x2="45.4" y2="412.8" stroke="#f2f1eb" stroke-width="8" opacity="0.68" stroke-linecap="round"/><line x1="95.4" y1="376.7" x2="58.3" y2="364.6" stroke="#f2f1eb" stroke-width="8" opacity="0.68" stroke-linecap="round"/><line x1="111.9" y1="333.8" x2="76.2" y2="318.0" stroke="#f2f1eb" stroke-width="8" opacity="0.68" stroke-linecap="round"/><line x1="132.7" y1="293.0" x2="98.9" y2="273.5" stroke="#f2f1eb" stroke-width="8" opacity="0.68" stroke-linecap="round"/><line x1="157.7" y1="254.6" x2="126.1" y2="231.6" stroke="#f2f1eb" stroke-width="8" opacity="0.68" stroke-linecap="round"/><line x1="186.5" y1="218.9" x2="157.5" y2="192.8" stroke="#f2f1eb" stroke-width="8" opacity="0.68" stroke-linecap="round"/><line x1="218.9" y1="186.5" x2="192.8" y2="157.5" stroke="#f2f1eb" stroke-width="8" opacity="0.68" stroke-linecap="round"/><line x1="254.6" y1="157.7" x2="231.6" y2="126.1" stroke="#f2f1eb" stroke-width="8" opacity="0.68" stroke-linecap="round"/><line x1="293.0" y1="132.7" x2="273.5" y2="98.9" stroke="#f2f1eb" stroke-width="8" opacity="0.68" stroke-linecap="round"/><line x1="333.8" y1="111.9" x2="318.0" y2="76.2" stroke="#f2f1eb" stroke-width="8" opacity="0.68" stroke-linecap="round"/><line x1="376.7" y1="95.4" x2="364.6" y2="58.3" stroke="#f2f1eb" stroke-width="8" opacity="0.68" stroke-linecap="round"/><line x1="420.9" y1="83.6" x2="412.8" y2="45.4" stroke="#f2f1eb" stroke-width="8" opacity="0.68" stroke-linecap="round"/><line x1="466.2" y1="76.4" x2="462.1" y2="37.6" stroke="#f2f1eb" stroke-width="8" opacity="0.68" stroke-linecap="round"/><circle cx="512" cy="512" r="438" fill="url(#dial)" stroke="#b9c1c8" stroke-width="8"/><circle cx="512.0" cy="146.0" r="24" fill="#bfffd7" stroke="#b9c1c8" stroke-width="6"/><line x1="553.2" y1="120.2" x2="554.8" y2="105.2" stroke="#f5f2e9" stroke-width="2.5" opacity="0.65" stroke-linecap="round"/><line x1="593.9" y1="126.6" x2="597.0" y2="111.9" stroke="#f5f2e9" stroke-width="2.5" opacity="0.65" stroke-linecap="round"/><line x1="633.8" y1="137.3" x2="638.4" y2="123.0" stroke="#f5f2e9" stroke-width="2.5" opacity="0.65" stroke-linecap="round"/><line x1="672.3" y1="152.1" x2="678.4" y2="138.4" stroke="#f5f2e9" stroke-width="2.5" opacity="0.65" stroke-linecap="round"/><circle cx="695.0" cy="195.0" r="19" fill="#bfffd7" stroke="#b9c1c8" stroke-width="6"/><line x1="743.6" y1="193.2" x2="752.4" y2="181.1" stroke="#f5f2e9" stroke-width="2.5" opacity="0.65" stroke-linecap="round"/><line x1="775.6" y1="219.2" x2="785.7" y2="208.1" stroke="#f5f2e9" stroke-width="2.5" opacity="0.65" stroke-linecap="round"/><line x1="804.8" y1="248.4" x2="815.9" y2="238.3" stroke="#f5f2e9" stroke-width="2.5" opacity="0.65" stroke-linecap="round"/><line x1="830.8" y1="280.4" x2="842.9" y2="271.6" stroke="#f5f2e9" stroke-width="2.5" opacity="0.65" stroke-linecap="round"/><circle cx="829.0" cy="329.0" r="19" fill="#bfffd7" stroke="#b9c1c8" stroke-width="6"/><line x1="871.9" y1="351.7" x2="885.6" y2="345.6" stroke="#f5f2e9" stroke-width="2.5" opacity="0.65" stroke-linecap="round"/><line x1="886.7" y1="390.2" x2="901.0" y2="385.6" stroke="#f5f2e9" stroke-width="2.5" opacity="0.65" stroke-linecap="round"/><line x1="897.4" y1="430.1" x2="912.1" y2="427.0" stroke="#f5f2e9" stroke-width="2.5" opacity="0.65" stroke-linecap="round"/><line x1="903.8" y1="470.8" x2="918.8" y2="469.2" stroke="#f5f2e9" stroke-width="2.5" opacity="0.65" stroke-linecap="round"/><circle cx="878.0" cy="512.0" r="19" fill="#bfffd7" stroke="#b9c1c8" stroke-width="6"/><line x1="903.8" y1="553.2" x2="918.8" y2="554.8" stroke="#f5f2e9" stroke-width="2.5" opacity="0.65" stroke-linecap="round"/><line x1="897.4" y1="593.9" x2="912.1" y2="597.0" stroke="#f5f2e9" stroke-width="2.5" opacity="0.65" stroke-linecap="round"/><line x1="886.7" y1="633.8" x2="901.0" y2="638.4" stroke="#f5f2e9" stroke-width="2.5" opacity="0.65" stroke-linecap="round"/><line x1="871.9" y1="672.3" x2="885.6" y2="678.4" stroke="#f5f2e9" stroke-width="2.5" opacity="0.65" stroke-linecap="round"/><circle cx="829.0" cy="695.0" r="19" fill="#bfffd7" stroke="#b9c1c8" stroke-width="6"/><line x1="830.8" y1="743.6" x2="842.9" y2="752.4" stroke="#f5f2e9" stroke-width="2.5" opacity="0.65" stroke-linecap="round"/><line x1="804.8" y1="775.6" x2="815.9" y2="785.7" stroke="#f5f2e9" stroke-width="2.5" opacity="0.65" stroke-linecap="round"/><line x1="775.6" y1="804.8" x2="785.7" y2="815.9" stroke="#f5f2e9" stroke-width="2.5" opacity="0.65" stroke-linecap="round"/><line x1="743.6" y1="830.8" x2="752.4" y2="842.9" stroke="#f5f2e9" stroke-width="2.5" opacity="0.65" stroke-linecap="round"/><circle cx="695.0" cy="829.0" r="19" fill="#bfffd7" stroke="#b9c1c8" stroke-width="6"/><line x1="672.3" y1="871.9" x2="678.4" y2="885.6" stroke="#f5f2e9" stroke-width="2.5" opacity="0.65" stroke-linecap="round"/><line x1="633.8" y1="886.7" x2="638.4" y2="901.0" stroke="#f5f2e9" stroke-width="2.5" opacity="0.65" stroke-linecap="round"/><line x1="593.9" y1="897.4" x2="597.0" y2="912.1" stroke="#f5f2e9" stroke-width="2.5" opacity="0.65" stroke-linecap="round"/><line x1="553.2" y1="903.8" x2="554.8" y2="918.8" stroke="#f5f2e9" stroke-width="2.5" opacity="0.65" stroke-linecap="round"/><circle cx="512.0" cy="878.0" r="19" fill="#bfffd7" stroke="#b9c1c8" stroke-width="6"/><line x1="470.8" y1="903.8" x2="469.2" y2="918.8" stroke="#f5f2e9" stroke-width="2.5" opacity="0.65" stroke-linecap="round"/><line x1="430.1" y1="897.4" x2="427.0" y2="912.1" stroke="#f5f2e9" stroke-width="2.5" opacity="0.65" stroke-linecap="round"/><line x1="390.2" y1="886.7" x2="385.6" y2="901.0" stroke="#f5f2e9" stroke-width="2.5" opacity="0.65" stroke-linecap="round"/><line x1="351.7" y1="871.9" x2="345.6" y2="885.6" stroke="#f5f2e9" stroke-width="2.5" opacity="0.65" stroke-linecap="round"/><circle cx="329.0" cy="829.0" r="19" fill="#bfffd7" stroke="#b9c1c8" stroke-width="6"/><line x1="280.4" y1="830.8" x2="271.6" y2="842.9" stroke="#f5f2e9" stroke-width="2.5" opacity="0.65" stroke-linecap="round"/><line x1="248.4" y1="804.8" x2="238.3" y2="815.9" stroke="#f5f2e9" stroke-width="2.5" opacity="0.65" stroke-linecap="round"/><line x1="219.2" y1="775.6" x2="208.1" y2="785.7" stroke="#f5f2e9" stroke-width="2.5" opacity="0.65" stroke-linecap="round"/><line x1="193.2" y1="743.6" x2="181.1" y2="752.4" stroke="#f5f2e9" stroke-width="2.5" opacity="0.65" stroke-linecap="round"/><circle cx="195.0" cy="695.0" r="19" fill="#bfffd7" stroke="#b9c1c8" stroke-width="6"/><line x1="152.1" y1="672.3" x2="138.4" y2="678.4" stroke="#f5f2e9" stroke-width="2.5" opacity="0.65" stroke-linecap="round"/><line x1="137.3" y1="633.8" x2="123.0" y2="638.4" stroke="#f5f2e9" stroke-width="2.5" opacity="0.65" stroke-linecap="round"/><line x1="126.6" y1="593.9" x2="111.9" y2="597.0" stroke="#f5f2e9" stroke-width="2.5" opacity="0.65" stroke-linecap="round"/><line x1="120.2" y1="553.2" x2="105.2" y2="554.8" stroke="#f5f2e9" stroke-width="2.5" opacity="0.65" stroke-linecap="round"/><circle cx="146.0" cy="512.0" r="19" fill="#bfffd7" stroke="#b9c1c8" stroke-width="6"/><line x1="120.2" y1="470.8" x2="105.2" y2="469.2" stroke="#f5f2e9" stroke-width="2.5" opacity="0.65" stroke-linecap="round"/><line x1="126.6" y1="430.1" x2="111.9" y2="427.0" stroke="#f5f2e9" stroke-width="2.5" opacity="0.65" stroke-linecap="round"/><line x1="137.3" y1="390.2" x2="123.0" y2="385.6" stroke="#f5f2e9" stroke-width="2.5" opacity="0.65" stroke-linecap="round"/><line x1="152.1" y1="351.7" x2="138.4" y2="345.6" stroke="#f5f2e9" stroke-width="2.5" opacity="0.65" stroke-linecap="round"/><circle cx="195.0" cy="329.0" r="19" fill="#bfffd7" stroke="#b9c1c8" stroke-width="6"/><line x1="193.2" y1="280.4" x2="181.1" y2="271.6" stroke="#f5f2e9" stroke-width="2.5" opacity="0.65" stroke-linecap="round"/><line x1="219.2" y1="248.4" x2="208.1" y2="238.3" stroke="#f5f2e9" stroke-width="2.5" opacity="0.65" stroke-linecap="round"/><line x1="248.4" y1="219.2" x2="238.3" y2="208.1" stroke="#f5f2e9" stroke-width="2.5" opacity="0.65" stroke-linecap="round"/><line x1="280.4" y1="193.2" x2="271.6" y2="181.1" stroke="#f5f2e9" stroke-width="2.5" opacity="0.65" stroke-linecap="round"/><circle cx="329.0" cy="195.0" r="19" fill="#bfffd7" stroke="#b9c1c8" stroke-width="6"/><line x1="351.7" y1="152.1" x2="345.6" y2="138.4" stroke="#f5f2e9" stroke-width="2.5" opacity="0.65" stroke-linecap="round"/><line x1="390.2" y1="137.3" x2="385.6" y2="123.0" stroke="#f5f2e9" stroke-width="2.5" opacity="0.65" stroke-linecap="round"/><line x1="430.1" y1="126.6" x2="427.0" y2="111.9" stroke="#f5f2e9" stroke-width="2.5" opacity="0.65" stroke-linecap="round"/><line x1="470.8" y1="120.2" x2="469.2" y2="105.2" stroke="#f5f2e9" stroke-width="2.5" opacity="0.65" stroke-linecap="round"/><circle cx="512" cy="512" r="418" fill="none" stroke="#f5f2e9" stroke-width="2" opacity=".32"/><text x="512.0" y="227.5" text-anchor="middle" font-family="Arial,sans-serif" font-size="22" font-weight="700" fill="#e7463c">24</text><text x="658.0" y="266.6" text-anchor="middle" font-family="Arial,sans-serif" font-size="22" font-weight="700" fill="#e7463c">2</text><text x="764.9" y="373.5" text-anchor="middle" font-family="Arial,sans-serif" font-size="22" font-weight="700" fill="#e7463c">4</text><text x="804.0" y="519.5" text-anchor="middle" font-family="Arial,sans-serif" font-size="22" font-weight="700" fill="#e7463c">6</text><text x="764.9" y="665.5" text-anchor="middle" font-family="Arial,sans-serif" font-size="22" font-weight="700" fill="#e7463c">8</text><text x="658.0" y="772.4" text-anchor="middle" font-family="Arial,sans-serif" font-size="22" font-weight="700" fill="#e7463c">10</text><text x="512.0" y="811.5" text-anchor="middle" font-family="Arial,sans-serif" font-size="22" font-weight="700" fill="#e7463c">12</text><text x="366.0" y="772.4" text-anchor="middle" font-family="Arial,sans-serif" font-size="22" font-weight="700" fill="#e7463c">14</text><text x="259.1" y="665.5" text-anchor="middle" font-family="Arial,sans-serif" font-size="22" font-weight="700" fill="#e7463c">16</text><text x="220.0" y="519.5" text-anchor="middle" font-family="Arial,sans-serif" font-size="22" font-weight="700" fill="#e7463c">18</text><text x="259.1" y="373.5" text-anchor="middle" font-family="Arial,sans-serif" font-size="22" font-weight="700" fill="#e7463c">20</text><text x="366.0" y="266.6" text-anchor="middle" font-family="Arial,sans-serif" font-size="22" font-weight="700" fill="#e7463c">22</text><g transform="rotate(92 512 512)"><path d="M512 562 L495 232 L472 260 L512 186 L552 260 L529 232 Z" fill="#e7463c" opacity=".9"/></g><g filter="url(#shadow)"><g transform="rotate(304 512 512)"><path d="M512 552 L477 498 L490 354 A43 43 0 1 1 534 354 L547 498 Z M512 314 A20 20 0 1 0 512 354 A20 20 0 1 0 512 314" fill="#bfffd7" fill-rule="evenodd" stroke="#b9c1c8" stroke-width="7"/></g><g transform="rotate(54 512 512)"><path d="M512 552 L490 503 L503 158 L512 128 L521 158 L534 503 Z" fill="#bfffd7" stroke="#b9c1c8" stroke-width="7"/></g><g transform="rotate(216 512 512)"><line x1="512" y1="602" x2="512" y2="118" stroke="#e7463c" stroke-width="7" stroke-linecap="round"/><path d="M512 104 l-18 62 17-8 -9 46 30-76-18 9z" fill="#e7463c"/></g><circle cx="512" cy="512" r="31" fill="url(#steel)" stroke="#030405" stroke-width="7"/><circle cx="512" cy="512" r="10" fill="#e7463c"/></g></svg>
