<svg xmlns="http://www.w3.org/2000/svg" width="1024" height="1024" viewBox="0 0 1024 1024" role="img" aria-label="Regency Date dial"><defs>
      <radialGradient id="dial" cx="38%" cy="31%" r="74%"><stop stop-color="#071914"/><stop offset=".55" stop-color="#12352b"/><stop offset="1" stop-color="#071914"/></radialGradient>
      <linearGradient id="steel" x1="0" y1="0" x2="1" y2="1"><stop stop-color="#f8fafb"/><stop offset=".25" stop-color="#d9c997"/><stop offset=".52" stop-color="#535961"/><stop offset=".75" stop-color="#d9c997"/><stop offset="1" stop-color="#f7f8f6"/></linearGradient>
      <linearGradient id="hand" x1="0" y1="0" x2="1" y2="1"><stop stop-color="#f7f1dc"/><stop offset=".48" stop-color="#d9c997"/><stop offset=".52" stop-color="#fff"/><stop offset="1" stop-color="#f7f1dc"/></linearGradient>
      <filter id="shadow" x="-30%" y="-30%" width="160%" height="160%"><feDropShadow dx="0" dy="10" stdDeviation="12" flood-color="#000" flood-opacity=".5"/></filter>
      <filter id="soft" x="-30%" y="-30%" width="160%" height="160%"><feGaussianBlur stdDeviation="5"/></filter>
    </defs><circle cx="512" cy="512" r="482" fill="url(#steel)" filter="url(#shadow)"/><line x1="512.0" y1="74.0" x2="512.0" y2="35.0" stroke="#f2f1eb" stroke-width="8" opacity="0.68" stroke-linecap="round"/><line x1="557.8" y1="76.4" x2="561.9" y2="37.6" stroke="#f2f1eb" stroke-width="8" opacity="0.68" stroke-linecap="round"/><line x1="603.1" y1="83.6" x2="611.2" y2="45.4" stroke="#f2f1eb" stroke-width="8" opacity="0.68" stroke-linecap="round"/><line x1="647.3" y1="95.4" x2="659.4" y2="58.3" stroke="#f2f1eb" stroke-width="8" opacity="0.68" stroke-linecap="round"/><line x1="690.2" y1="111.9" x2="706.0" y2="76.2" stroke="#f2f1eb" stroke-width="8" opacity="0.68" stroke-linecap="round"/><line x1="731.0" y1="132.7" x2="750.5" y2="98.9" stroke="#f2f1eb" stroke-width="8" opacity="0.68" stroke-linecap="round"/><line x1="769.4" y1="157.7" x2="792.4" y2="126.1" stroke="#f2f1eb" stroke-width="8" opacity="0.68" stroke-linecap="round"/><line x1="805.1" y1="186.5" x2="831.2" y2="157.5" stroke="#f2f1eb" stroke-width="8" opacity="0.68" stroke-linecap="round"/><line x1="837.5" y1="218.9" x2="866.5" y2="192.8" stroke="#f2f1eb" stroke-width="8" opacity="0.68" stroke-linecap="round"/><line x1="866.3" y1="254.6" x2="897.9" y2="231.6" stroke="#f2f1eb" stroke-width="8" opacity="0.68" stroke-linecap="round"/><line x1="891.3" y1="293.0" x2="925.1" y2="273.5" stroke="#f2f1eb" stroke-width="8" opacity="0.68" stroke-linecap="round"/><line x1="912.1" y1="333.8" x2="947.8" y2="318.0" stroke="#f2f1eb" stroke-width="8" opacity="0.68" stroke-linecap="round"/><line x1="928.6" y1="376.7" x2="965.7" y2="364.6" stroke="#f2f1eb" stroke-width="8" opacity="0.68" stroke-linecap="round"/><line x1="940.4" y1="420.9" x2="978.6" y2="412.8" stroke="#f2f1eb" stroke-width="8" opacity="0.68" stroke-linecap="round"/><line x1="947.6" y1="466.2" x2="986.4" y2="462.1" stroke="#f2f1eb" stroke-width="8" opacity="0.68" stroke-linecap="round"/><line x1="950.0" y1="512.0" x2="989.0" y2="512.0" stroke="#f2f1eb" stroke-width="8" opacity="0.68" stroke-linecap="round"/><line x1="947.6" y1="557.8" x2="986.4" y2="561.9" stroke="#f2f1eb" stroke-width="8" opacity="0.68" stroke-linecap="round"/><line x1="940.4" y1="603.1" x2="978.6" y2="611.2" stroke="#f2f1eb" stroke-width="8" opacity="0.68" stroke-linecap="round"/><line x1="928.6" y1="647.3" x2="965.7" y2="659.4" stroke="#f2f1eb" stroke-width="8" opacity="0.68" stroke-linecap="round"/><line x1="912.1" y1="690.2" x2="947.8" y2="706.0" stroke="#f2f1eb" stroke-width="8" opacity="0.68" stroke-linecap="round"/><line x1="891.3" y1="731.0" x2="925.1" y2="750.5" stroke="#f2f1eb" stroke-width="8" opacity="0.68" stroke-linecap="round"/><line x1="866.3" y1="769.4" x2="897.9" y2="792.4" stroke="#f2f1eb" stroke-width="8" opacity="0.68" stroke-linecap="round"/><line x1="837.5" y1="805.1" x2="866.5" y2="831.2" stroke="#f2f1eb" stroke-width="8" opacity="0.68" stroke-linecap="round"/><line x1="805.1" y1="837.5" x2="831.2" y2="866.5" stroke="#f2f1eb" stroke-width="8" opacity="0.68" stroke-linecap="round"/><line x1="769.4" y1="866.3" x2="792.4" y2="897.9" stroke="#f2f1eb" stroke-width="8" opacity="0.68" stroke-linecap="round"/><line x1="731.0" y1="891.3" x2="750.5" y2="925.1" stroke="#f2f1eb" stroke-width="8" opacity="0.68" stroke-linecap="round"/><line x1="690.2" y1="912.1" x2="706.0" y2="947.8" stroke="#f2f1eb" stroke-width="8" opacity="0.68" stroke-linecap="round"/><line x1="647.3" y1="928.6" x2="659.4" y2="965.7" stroke="#f2f1eb" stroke-width="8" opacity="0.68" stroke-linecap="round"/><line x1="603.1" y1="940.4" x2="611.2" y2="978.6" stroke="#f2f1eb" stroke-width="8" opacity="0.68" stroke-linecap="round"/><line x1="557.8" y1="947.6" x2="561.9" y2="986.4" stroke="#f2f1eb" stroke-width="8" opacity="0.68" stroke-linecap="round"/><line x1="512.0" y1="950.0" x2="512.0" y2="989.0" stroke="#f2f1eb" stroke-width="8" opacity="0.68" stroke-linecap="round"/><line x1="466.2" y1="947.6" x2="462.1" y2="986.4" stroke="#f2f1eb" stroke-width="8" opacity="0.68" stroke-linecap="round"/><line x1="420.9" y1="940.4" x2="412.8" y2="978.6" stroke="#f2f1eb" stroke-width="8" opacity="0.68" stroke-linecap="round"/><line x1="376.7" y1="928.6" x2="364.6" y2="965.7" stroke="#f2f1eb" stroke-width="8" opacity="0.68" stroke-linecap="round"/><line x1="333.8" y1="912.1" x2="318.0" y2="947.8" stroke="#f2f1eb" stroke-width="8" opacity="0.68" stroke-linecap="round"/><line x1="293.0" y1="891.3" x2="273.5" y2="925.1" stroke="#f2f1eb" stroke-width="8" opacity="0.68" stroke-linecap="round"/><line x1="254.6" y1="866.3" x2="231.6" y2="897.9" stroke="#f2f1eb" stroke-width="8" opacity="0.68" stroke-linecap="round"/><line x1="218.9" y1="837.5" x2="192.8" y2="866.5" stroke="#f2f1eb" stroke-width="8" opacity="0.68" stroke-linecap="round"/><line x1="186.5" y1="805.1" x2="157.5" y2="831.2" stroke="#f2f1eb" stroke-width="8" opacity="0.68" stroke-linecap="round"/><line x1="157.7" y1="769.4" x2="126.1" y2="792.4" stroke="#f2f1eb" stroke-width="8" opacity="0.68" stroke-linecap="round"/><line x1="132.7" y1="731.0" x2="98.9" y2="750.5" stroke="#f2f1eb" stroke-width="8" opacity="0.68" stroke-linecap="round"/><line x1="111.9" y1="690.2" x2="76.2" y2="706.0" stroke="#f2f1eb" stroke-width="8" opacity="0.68" stroke-linecap="round"/><line x1="95.4" y1="647.3" x2="58.3" y2="659.4" stroke="#f2f1eb" stroke-width="8" opacity="0.68" stroke-linecap="round"/><line x1="83.6" y1="603.1" x2="45.4" y2="611.2" stroke="#f2f1eb" stroke-width="8" opacity="0.68" stroke-linecap="round"/><line x1="76.4" y1="557.8" x2="37.6" y2="561.9" stroke="#f2f1eb" stroke-width="8" opacity="0.68" stroke-linecap="round"/><line x1="74.0" y1="512.0" x2="35.0" y2="512.0" stroke="#f2f1eb" stroke-width="8" opacity="0.68" stroke-linecap="round"/><line x1="76.4" y1="466.2" x2="37.6" y2="462.1" stroke="#f2f1eb" stroke-width="8" opacity="0.68" stroke-linecap="round"/><line x1="83.6" y1="420.9" x2="45.4" y2="412.8" stroke="#f2f1eb" stroke-width="8" opacity="0.68" stroke-linecap="round"/><line x1="95.4" y1="376.7" x2="58.3" y2="364.6" stroke="#f2f1eb" stroke-width="8" opacity="0.68" stroke-linecap="round"/><line x1="111.9" y1="333.8" x2="76.2" y2="318.0" stroke="#f2f1eb" stroke-width="8" opacity="0.68" stroke-linecap="round"/><line x1="132.7" y1="293.0" x2="98.9" y2="273.5" stroke="#f2f1eb" stroke-width="8" opacity="0.68" stroke-linecap="round"/><line x1="157.7" y1="254.6" x2="126.1" y2="231.6" stroke="#f2f1eb" stroke-width="8" opacity="0.68" stroke-linecap="round"/><line x1="186.5" y1="218.9" x2="157.5" y2="192.8" stroke="#f2f1eb" stroke-width="8" opacity="0.68" stroke-linecap="round"/><line x1="218.9" y1="186.5" x2="192.8" y2="157.5" stroke="#f2f1eb" stroke-width="8" opacity="0.68" stroke-linecap="round"/><line x1="254.6" y1="157.7" x2="231.6" y2="126.1" stroke="#f2f1eb" stroke-width="8" opacity="0.68" stroke-linecap="round"/><line x1="293.0" y1="132.7" x2="273.5" y2="98.9" stroke="#f2f1eb" stroke-width="8" opacity="0.68" stroke-linecap="round"/><line x1="333.8" y1="111.9" x2="318.0" y2="76.2" stroke="#f2f1eb" stroke-width="8" opacity="0.68" stroke-linecap="round"/><line x1="376.7" y1="95.4" x2="364.6" y2="58.3" stroke="#f2f1eb" stroke-width="8" opacity="0.68" stroke-linecap="round"/><line x1="420.9" y1="83.6" x2="412.8" y2="45.4" stroke="#f2f1eb" stroke-width="8" opacity="0.68" stroke-linecap="round"/><line x1="466.2" y1="76.4" x2="462.1" y2="37.6" stroke="#f2f1eb" stroke-width="8" opacity="0.68" stroke-linecap="round"/><circle cx="512" cy="512" r="438" fill="url(#dial)" stroke="#d9c997" stroke-width="8"/><line x1="512.0" y1="442.0" x2="512.0" y2="94.0" stroke="#d6b85a" stroke-width="3" opacity="0.16" stroke-linecap="round"/><line x1="519.3" y1="442.4" x2="555.7" y2="96.3" stroke="#d6b85a" stroke-width="3" opacity="0.16" stroke-linecap="round"/><line x1="526.6" y1="443.5" x2="598.9" y2="103.1" stroke="#d6b85a" stroke-width="3" opacity="0.16" stroke-linecap="round"/><line x1="533.6" y1="445.4" x2="641.2" y2="114.5" stroke="#d6b85a" stroke-width="3" opacity="0.16" stroke-linecap="round"/><line x1="540.5" y1="448.1" x2="682.0" y2="130.1" stroke="#d6b85a" stroke-width="3" opacity="0.16" stroke-linecap="round"/><line x1="547.0" y1="451.4" x2="721.0" y2="150.0" stroke="#d6b85a" stroke-width="3" opacity="0.16" stroke-linecap="round"/><line x1="553.1" y1="455.4" x2="757.7" y2="173.8" stroke="#d6b85a" stroke-width="3" opacity="0.16" stroke-linecap="round"/><line x1="558.8" y1="460.0" x2="791.7" y2="201.4" stroke="#d6b85a" stroke-width="3" opacity="0.16" stroke-linecap="round"/><line x1="564.0" y1="465.2" x2="822.6" y2="232.3" stroke="#d6b85a" stroke-width="3" opacity="0.16" stroke-linecap="round"/><line x1="568.6" y1="470.9" x2="850.2" y2="266.3" stroke="#d6b85a" stroke-width="3" opacity="0.16" stroke-linecap="round"/><line x1="572.6" y1="477.0" x2="874.0" y2="303.0" stroke="#d6b85a" stroke-width="3" opacity="0.16" stroke-linecap="round"/><line x1="575.9" y1="483.5" x2="893.9" y2="342.0" stroke="#d6b85a" stroke-width="3" opacity="0.16" stroke-linecap="round"/><line x1="578.6" y1="490.4" x2="909.5" y2="382.8" stroke="#d6b85a" stroke-width="3" opacity="0.16" stroke-linecap="round"/><line x1="580.5" y1="497.4" x2="920.9" y2="425.1" stroke="#d6b85a" stroke-width="3" opacity="0.16" stroke-linecap="round"/><line x1="581.6" y1="504.7" x2="927.7" y2="468.3" stroke="#d6b85a" stroke-width="3" opacity="0.16" stroke-linecap="round"/><line x1="582.0" y1="512.0" x2="930.0" y2="512.0" stroke="#d6b85a" stroke-width="3" opacity="0.16" stroke-linecap="round"/><line x1="581.6" y1="519.3" x2="927.7" y2="555.7" stroke="#d6b85a" stroke-width="3" opacity="0.16" stroke-linecap="round"/><line x1="580.5" y1="526.6" x2="920.9" y2="598.9" stroke="#d6b85a" stroke-width="3" opacity="0.16" stroke-linecap="round"/><line x1="578.6" y1="533.6" x2="909.5" y2="641.2" stroke="#d6b85a" stroke-width="3" opacity="0.16" stroke-linecap="round"/><line x1="575.9" y1="540.5" x2="893.9" y2="682.0" stroke="#d6b85a" stroke-width="3" opacity="0.16" stroke-linecap="round"/><line x1="572.6" y1="547.0" x2="874.0" y2="721.0" stroke="#d6b85a" stroke-width="3" opacity="0.16" stroke-linecap="round"/><line x1="568.6" y1="553.1" x2="850.2" y2="757.7" stroke="#d6b85a" stroke-width="3" opacity="0.16" stroke-linecap="round"/><line x1="564.0" y1="558.8" x2="822.6" y2="791.7" stroke="#d6b85a" stroke-width="3" opacity="0.16" stroke-linecap="round"/><line x1="558.8" y1="564.0" x2="791.7" y2="822.6" stroke="#d6b85a" stroke-width="3" opacity="0.16" stroke-linecap="round"/><line x1="553.1" y1="568.6" x2="757.7" y2="850.2" stroke="#d6b85a" stroke-width="3" opacity="0.16" stroke-linecap="round"/><line x1="547.0" y1="572.6" x2="721.0" y2="874.0" stroke="#d6b85a" stroke-width="3" opacity="0.16" stroke-linecap="round"/><line x1="540.5" y1="575.9" x2="682.0" y2="893.9" stroke="#d6b85a" stroke-width="3" opacity="0.16" stroke-linecap="round"/><line x1="533.6" y1="578.6" x2="641.2" y2="909.5" stroke="#d6b85a" stroke-width="3" opacity="0.16" stroke-linecap="round"/><line x1="526.6" y1="580.5" x2="598.9" y2="920.9" stroke="#d6b85a" stroke-width="3" opacity="0.16" stroke-linecap="round"/><line x1="519.3" y1="581.6" x2="555.7" y2="927.7" stroke="#d6b85a" stroke-width="3" opacity="0.16" stroke-linecap="round"/><line x1="512.0" y1="582.0" x2="512.0" y2="930.0" stroke="#d6b85a" stroke-width="3" opacity="0.16" stroke-linecap="round"/><line x1="504.7" y1="581.6" x2="468.3" y2="927.7" stroke="#d6b85a" stroke-width="3" opacity="0.16" stroke-linecap="round"/><line x1="497.4" y1="580.5" x2="425.1" y2="920.9" stroke="#d6b85a" stroke-width="3" opacity="0.16" stroke-linecap="round"/><line x1="490.4" y1="578.6" x2="382.8" y2="909.5" stroke="#d6b85a" stroke-width="3" opacity="0.16" stroke-linecap="round"/><line x1="483.5" y1="575.9" x2="342.0" y2="893.9" stroke="#d6b85a" stroke-width="3" opacity="0.16" stroke-linecap="round"/><line x1="477.0" y1="572.6" x2="303.0" y2="874.0" stroke="#d6b85a" stroke-width="3" opacity="0.16" stroke-linecap="round"/><line x1="470.9" y1="568.6" x2="266.3" y2="850.2" stroke="#d6b85a" stroke-width="3" opacity="0.16" stroke-linecap="round"/><line x1="465.2" y1="564.0" x2="232.3" y2="822.6" stroke="#d6b85a" stroke-width="3" opacity="0.16" stroke-linecap="round"/><line x1="460.0" y1="558.8" x2="201.4" y2="791.7" stroke="#d6b85a" stroke-width="3" opacity="0.16" stroke-linecap="round"/><line x1="455.4" y1="553.1" x2="173.8" y2="757.7" stroke="#d6b85a" stroke-width="3" opacity="0.16" stroke-linecap="round"/><line x1="451.4" y1="547.0" x2="150.0" y2="721.0" stroke="#d6b85a" stroke-width="3" opacity="0.16" stroke-linecap="round"/><line x1="448.1" y1="540.5" x2="130.1" y2="682.0" stroke="#d6b85a" stroke-width="3" opacity="0.16" stroke-linecap="round"/><line x1="445.4" y1="533.6" x2="114.5" y2="641.2" stroke="#d6b85a" stroke-width="3" opacity="0.16" stroke-linecap="round"/><line x1="443.5" y1="526.6" x2="103.1" y2="598.9" stroke="#d6b85a" stroke-width="3" opacity="0.16" stroke-linecap="round"/><line x1="442.4" y1="519.3" x2="96.3" y2="555.7" stroke="#d6b85a" stroke-width="3" opacity="0.16" stroke-linecap="round"/><line x1="442.0" y1="512.0" x2="94.0" y2="512.0" stroke="#d6b85a" stroke-width="3" opacity="0.16" stroke-linecap="round"/><line x1="442.4" y1="504.7" x2="96.3" y2="468.3" stroke="#d6b85a" stroke-width="3" opacity="0.16" stroke-linecap="round"/><line x1="443.5" y1="497.4" x2="103.1" y2="425.1" stroke="#d6b85a" stroke-width="3" opacity="0.16" stroke-linecap="round"/><line x1="445.4" y1="490.4" x2="114.5" y2="382.8" stroke="#d6b85a" stroke-width="3" opacity="0.16" stroke-linecap="round"/><line x1="448.1" y1="483.5" x2="130.1" y2="342.0" stroke="#d6b85a" stroke-width="3" opacity="0.16" stroke-linecap="round"/><line x1="451.4" y1="477.0" x2="150.0" y2="303.0" stroke="#d6b85a" stroke-width="3" opacity="0.16" stroke-linecap="round"/><line x1="455.4" y1="470.9" x2="173.8" y2="266.3" stroke="#d6b85a" stroke-width="3" opacity="0.16" stroke-linecap="round"/><line x1="460.0" y1="465.2" x2="201.4" y2="232.3" stroke="#d6b85a" stroke-width="3" opacity="0.16" stroke-linecap="round"/><line x1="465.2" y1="460.0" x2="232.3" y2="201.4" stroke="#d6b85a" stroke-width="3" opacity="0.16" stroke-linecap="round"/><line x1="470.9" y1="455.4" x2="266.3" y2="173.8" stroke="#d6b85a" stroke-width="3" opacity="0.16" stroke-linecap="round"/><line x1="477.0" y1="451.4" x2="303.0" y2="150.0" stroke="#d6b85a" stroke-width="3" opacity="0.16" stroke-linecap="round"/><line x1="483.5" y1="448.1" x2="342.0" y2="130.1" stroke="#d6b85a" stroke-width="3" opacity="0.16" stroke-linecap="round"/><line x1="490.4" y1="445.4" x2="382.8" y2="114.5" stroke="#d6b85a" stroke-width="3" opacity="0.16" stroke-linecap="round"/><line x1="497.4" y1="443.5" x2="425.1" y2="103.1" stroke="#d6b85a" stroke-width="3" opacity="0.16" stroke-linecap="round"/><line x1="504.7" y1="442.4" x2="468.3" y2="96.3" stroke="#d6b85a" stroke-width="3" opacity="0.16" stroke-linecap="round"/><line x1="512.0" y1="154.0" x2="512.0" y2="107.0" stroke="#eefbd3" stroke-width="13" opacity="1" stroke-linecap="round"/><line x1="553.2" y1="120.2" x2="554.8" y2="105.2" stroke="#f7f1dc" stroke-width="2.5" opacity="0.65" stroke-linecap="round"/><line x1="593.9" y1="126.6" x2="597.0" y2="111.9" stroke="#f7f1dc" stroke-width="2.5" opacity="0.65" stroke-linecap="round"/><line x1="633.8" y1="137.3" x2="638.4" y2="123.0" stroke="#f7f1dc" stroke-width="2.5" opacity="0.65" stroke-linecap="round"/><line x1="672.3" y1="152.1" x2="678.4" y2="138.4" stroke="#f7f1dc" stroke-width="2.5" opacity="0.65" stroke-linecap="round"/><line x1="691.0" y1="202.0" x2="714.5" y2="161.3" stroke="#eefbd3" stroke-width="13" opacity="1" stroke-linecap="round"/><line x1="743.6" y1="193.2" x2="752.4" y2="181.1" stroke="#f7f1dc" stroke-width="2.5" opacity="0.65" stroke-linecap="round"/><line x1="775.6" y1="219.2" x2="785.7" y2="208.1" stroke="#f7f1dc" stroke-width="2.5" opacity="0.65" stroke-linecap="round"/><line x1="804.8" y1="248.4" x2="815.9" y2="238.3" stroke="#f7f1dc" stroke-width="2.5" opacity="0.65" stroke-linecap="round"/><line x1="830.8" y1="280.4" x2="842.9" y2="271.6" stroke="#f7f1dc" stroke-width="2.5" opacity="0.65" stroke-linecap="round"/><line x1="822.0" y1="333.0" x2="862.7" y2="309.5" stroke="#eefbd3" stroke-width="13" opacity="1" stroke-linecap="round"/><line x1="871.9" y1="351.7" x2="885.6" y2="345.6" stroke="#f7f1dc" stroke-width="2.5" opacity="0.65" stroke-linecap="round"/><line x1="886.7" y1="390.2" x2="901.0" y2="385.6" stroke="#f7f1dc" stroke-width="2.5" opacity="0.65" stroke-linecap="round"/><line x1="897.4" y1="430.1" x2="912.1" y2="427.0" stroke="#f7f1dc" stroke-width="2.5" opacity="0.65" stroke-linecap="round"/><line x1="903.8" y1="470.8" x2="918.8" y2="469.2" stroke="#f7f1dc" stroke-width="2.5" opacity="0.65" stroke-linecap="round"/><line x1="870.0" y1="512.0" x2="917.0" y2="512.0" stroke="#eefbd3" stroke-width="13" opacity="1" stroke-linecap="round"/><line x1="903.8" y1="553.2" x2="918.8" y2="554.8" stroke="#f7f1dc" stroke-width="2.5" opacity="0.65" stroke-linecap="round"/><line x1="897.4" y1="593.9" x2="912.1" y2="597.0" stroke="#f7f1dc" stroke-width="2.5" opacity="0.65" stroke-linecap="round"/><line x1="886.7" y1="633.8" x2="901.0" y2="638.4" stroke="#f7f1dc" stroke-width="2.5" opacity="0.65" stroke-linecap="round"/><line x1="871.9" y1="672.3" x2="885.6" y2="678.4" stroke="#f7f1dc" stroke-width="2.5" opacity="0.65" stroke-linecap="round"/><line x1="822.0" y1="691.0" x2="862.7" y2="714.5" stroke="#eefbd3" stroke-width="13" opacity="1" stroke-linecap="round"/><line x1="830.8" y1="743.6" x2="842.9" y2="752.4" stroke="#f7f1dc" stroke-width="2.5" opacity="0.65" stroke-linecap="round"/><line x1="804.8" y1="775.6" x2="815.9" y2="785.7" stroke="#f7f1dc" stroke-width="2.5" opacity="0.65" stroke-linecap="round"/><line x1="775.6" y1="804.8" x2="785.7" y2="815.9" stroke="#f7f1dc" stroke-width="2.5" opacity="0.65" stroke-linecap="round"/><line x1="743.6" y1="830.8" x2="752.4" y2="842.9" stroke="#f7f1dc" stroke-width="2.5" opacity="0.65" stroke-linecap="round"/><line x1="691.0" y1="822.0" x2="714.5" y2="862.7" stroke="#eefbd3" stroke-width="13" opacity="1" stroke-linecap="round"/><line x1="672.3" y1="871.9" x2="678.4" y2="885.6" stroke="#f7f1dc" stroke-width="2.5" opacity="0.65" stroke-linecap="round"/><line x1="633.8" y1="886.7" x2="638.4" y2="901.0" stroke="#f7f1dc" stroke-width="2.5" opacity="0.65" stroke-linecap="round"/><line x1="593.9" y1="897.4" x2="597.0" y2="912.1" stroke="#f7f1dc" stroke-width="2.5" opacity="0.65" stroke-linecap="round"/><line x1="553.2" y1="903.8" x2="554.8" y2="918.8" stroke="#f7f1dc" stroke-width="2.5" opacity="0.65" stroke-linecap="round"/><line x1="512.0" y1="870.0" x2="512.0" y2="917.0" stroke="#eefbd3" stroke-width="13" opacity="1" stroke-linecap="round"/><line x1="470.8" y1="903.8" x2="469.2" y2="918.8" stroke="#f7f1dc" stroke-width="2.5" opacity="0.65" stroke-linecap="round"/><line x1="430.1" y1="897.4" x2="427.0" y2="912.1" stroke="#f7f1dc" stroke-width="2.5" opacity="0.65" stroke-linecap="round"/><line x1="390.2" y1="886.7" x2="385.6" y2="901.0" stroke="#f7f1dc" stroke-width="2.5" opacity="0.65" stroke-linecap="round"/><line x1="351.7" y1="871.9" x2="345.6" y2="885.6" stroke="#f7f1dc" stroke-width="2.5" opacity="0.65" stroke-linecap="round"/><line x1="333.0" y1="822.0" x2="309.5" y2="862.7" stroke="#eefbd3" stroke-width="13" opacity="1" stroke-linecap="round"/><line x1="280.4" y1="830.8" x2="271.6" y2="842.9" stroke="#f7f1dc" stroke-width="2.5" opacity="0.65" stroke-linecap="round"/><line x1="248.4" y1="804.8" x2="238.3" y2="815.9" stroke="#f7f1dc" stroke-width="2.5" opacity="0.65" stroke-linecap="round"/><line x1="219.2" y1="775.6" x2="208.1" y2="785.7" stroke="#f7f1dc" stroke-width="2.5" opacity="0.65" stroke-linecap="round"/><line x1="193.2" y1="743.6" x2="181.1" y2="752.4" stroke="#f7f1dc" stroke-width="2.5" opacity="0.65" stroke-linecap="round"/><line x1="202.0" y1="691.0" x2="161.3" y2="714.5" stroke="#eefbd3" stroke-width="13" opacity="1" stroke-linecap="round"/><line x1="152.1" y1="672.3" x2="138.4" y2="678.4" stroke="#f7f1dc" stroke-width="2.5" opacity="0.65" stroke-linecap="round"/><line x1="137.3" y1="633.8" x2="123.0" y2="638.4" stroke="#f7f1dc" stroke-width="2.5" opacity="0.65" stroke-linecap="round"/><line x1="126.6" y1="593.9" x2="111.9" y2="597.0" stroke="#f7f1dc" stroke-width="2.5" opacity="0.65" stroke-linecap="round"/><line x1="120.2" y1="553.2" x2="105.2" y2="554.8" stroke="#f7f1dc" stroke-width="2.5" opacity="0.65" stroke-linecap="round"/><line x1="154.0" y1="512.0" x2="107.0" y2="512.0" stroke="#eefbd3" stroke-width="13" opacity="1" stroke-linecap="round"/><line x1="120.2" y1="470.8" x2="105.2" y2="469.2" stroke="#f7f1dc" stroke-width="2.5" opacity="0.65" stroke-linecap="round"/><line x1="126.6" y1="430.1" x2="111.9" y2="427.0" stroke="#f7f1dc" stroke-width="2.5" opacity="0.65" stroke-linecap="round"/><line x1="137.3" y1="390.2" x2="123.0" y2="385.6" stroke="#f7f1dc" stroke-width="2.5" opacity="0.65" stroke-linecap="round"/><line x1="152.1" y1="351.7" x2="138.4" y2="345.6" stroke="#f7f1dc" stroke-width="2.5" opacity="0.65" stroke-linecap="round"/><line x1="202.0" y1="333.0" x2="161.3" y2="309.5" stroke="#eefbd3" stroke-width="13" opacity="1" stroke-linecap="round"/><line x1="193.2" y1="280.4" x2="181.1" y2="271.6" stroke="#f7f1dc" stroke-width="2.5" opacity="0.65" stroke-linecap="round"/><line x1="219.2" y1="248.4" x2="208.1" y2="238.3" stroke="#f7f1dc" stroke-width="2.5" opacity="0.65" stroke-linecap="round"/><line x1="248.4" y1="219.2" x2="238.3" y2="208.1" stroke="#f7f1dc" stroke-width="2.5" opacity="0.65" stroke-linecap="round"/><line x1="280.4" y1="193.2" x2="271.6" y2="181.1" stroke="#f7f1dc" stroke-width="2.5" opacity="0.65" stroke-linecap="round"/><line x1="333.0" y1="202.0" x2="309.5" y2="161.3" stroke="#eefbd3" stroke-width="13" opacity="1" stroke-linecap="round"/><line x1="351.7" y1="152.1" x2="345.6" y2="138.4" stroke="#f7f1dc" stroke-width="2.5" opacity="0.65" stroke-linecap="round"/><line x1="390.2" y1="137.3" x2="385.6" y2="123.0" stroke="#f7f1dc" stroke-width="2.5" opacity="0.65" stroke-linecap="round"/><line x1="430.1" y1="126.6" x2="427.0" y2="111.9" stroke="#f7f1dc" stroke-width="2.5" opacity="0.65" stroke-linecap="round"/><line x1="470.8" y1="120.2" x2="469.2" y2="105.2" stroke="#f7f1dc" stroke-width="2.5" opacity="0.65" stroke-linecap="round"/><circle cx="512" cy="512" r="418" fill="none" stroke="#f7f1dc" stroke-width="2" opacity=".32"/></svg>
