<svg xmlns="http://www.w3.org/2000/svg" width="1024" height="1024" viewBox="0 0 1024 1024" role="img" aria-label="Minimal Mono complete preview">
  <defs>
    <radialGradient id="dial" cx="42%" cy="34%" r="68%">
      <stop offset="0" stop-color="#ffffff"/><stop offset="1" stop-color="#f6f6f3"/>
    </radialGradient>
    <linearGradient id="metal" x1="0" y1="0" x2="1" y2="1">
      <stop offset="0" stop-color="#121417"/><stop offset=".48" stop-color="#36393d"/><stop offset="1" stop-color="#121417"/>
    </linearGradient>
    <linearGradient id="aurora" x1="0" y1="1" x2="1" y2="0">
      <stop offset="0" stop-color="#643dff"/><stop offset=".5" stop-color="#1bc7c0"/><stop offset="1" stop-color="#7dff78"/>
    </linearGradient>
    <filter id="shadow" x="-30%" y="-30%" width="160%" height="160%">
      <feDropShadow dx="0" dy="8" stdDeviation="10" flood-color="#000" flood-opacity=".45"/>
    </filter>
    <filter id="glow" x="-50%" y="-50%" width="200%" height="200%">
      <feGaussianBlur stdDeviation="8" result="b"/><feMerge><feMergeNode in="b"/><feMergeNode in="SourceGraphic"/></feMerge>
    </filter>
    </defs>
  
  
    <circle cx="512" cy="512" r="478" fill="#000" opacity=".18"/>
    <circle cx="512" cy="512" r="462" fill="url(#dial)" stroke="#36393d" stroke-width="10"/>
    <circle cx="512" cy="512" r="444" fill="none" stroke="#a5a7aa" stroke-width="3" opacity=".75"/>
    
    
    <circle cx="512" cy="118" r="8" fill="#121417"/>
<circle cx="709" cy="170.79" r="5" fill="#121417"/>
<circle cx="853.21" cy="315" r="5" fill="#121417"/>
<circle cx="906" cy="512" r="8" fill="#121417"/>
<circle cx="853.21" cy="709" r="5" fill="#121417"/>
<circle cx="709" cy="853.21" r="5" fill="#121417"/>
<circle cx="512" cy="906" r="8" fill="#121417"/>
<circle cx="315" cy="853.21" r="5" fill="#121417"/>
<circle cx="170.79" cy="709" r="5" fill="#121417"/>
<circle cx="118" cy="512" r="8" fill="#121417"/>
<circle cx="170.79" cy="315" r="5" fill="#121417"/>
<circle cx="315" cy="170.79" r="5" fill="#121417"/>
    <text x="512" y="191.92" text-anchor="middle" font-family="Arial,Helvetica,sans-serif" font-size="38" font-weight="700" fill="#121417">12</text>
<text x="845" y="524.92" text-anchor="middle" font-family="Arial,Helvetica,sans-serif" font-size="38" font-weight="700" fill="#121417">3</text>
<text x="512" y="857.92" text-anchor="middle" font-family="Arial,Helvetica,sans-serif" font-size="38" font-weight="700" fill="#121417">6</text>
<text x="179" y="524.92" text-anchor="middle" font-family="Arial,Helvetica,sans-serif" font-size="38" font-weight="700" fill="#121417">9</text>
    <circle cx="512" cy="512" r="458" fill="none" stroke="#fff" stroke-width="2" opacity=".12"/>
    

  <g><circle cx="512" cy="696" r="80" fill="#f6f6f3" fill-opacity=".78" stroke="#36393d" stroke-width="5"/><line x1="512" y1="632" x2="512" y2="620" stroke="#121417" stroke-width="4"/><line x1="544" y1="640.57" x2="550" y2="630.18" stroke="#121417" stroke-width="4"/><line x1="567.43" y1="664" x2="577.82" y2="658" stroke="#121417" stroke-width="4"/><line x1="576" y1="696" x2="588" y2="696" stroke="#121417" stroke-width="4"/><line x1="567.43" y1="728" x2="577.82" y2="734" stroke="#121417" stroke-width="4"/><line x1="544" y1="751.43" x2="550" y2="761.82" stroke="#121417" stroke-width="4"/><line x1="512" y1="760" x2="512" y2="772" stroke="#121417" stroke-width="4"/><line x1="480" y1="751.43" x2="474" y2="761.82" stroke="#121417" stroke-width="4"/><line x1="456.57" y1="728" x2="446.18" y2="734" stroke="#121417" stroke-width="4"/><line x1="448" y1="696" x2="436" y2="696" stroke="#121417" stroke-width="4"/><line x1="456.57" y1="664" x2="446.18" y2="658" stroke="#121417" stroke-width="4"/><line x1="480" y1="640.57" x2="474" y2="630.18" stroke="#121417" stroke-width="4"/>
    <line x1="512" y1="696" x2="556.8" y2="668.8" stroke="#e64545" stroke-width="7" stroke-linecap="round"/>
    <circle cx="512" cy="696" r="8" fill="#121417"/><text x="512" y="740.0" fill="#a5a7aa" font-family="Arial,sans-serif" font-size="20" text-anchor="middle">60</text></g>

  <g filter="url(#shadow)"><g transform="rotate(304 512 512)"><rect x="500" y="282" width="24" height="270" rx="12" fill="#121417"/></g><g transform="rotate(54 512 512)"><rect x="504" y="146" width="16" height="402" rx="8" fill="#121417"/></g><g transform="rotate(216 512 512)"><line x1="512" y1="586" x2="512" y2="116" stroke="#e64545" stroke-width="7" stroke-linecap="round"/><circle cx="512" cy="176" r="20" fill="none" stroke="#e64545" stroke-width="7"/></g>
    <circle cx="512" cy="512" r="31" fill="url(#metal)" stroke="#f6f6f3" stroke-width="6"/><circle cx="512" cy="512" r="10" fill="#e64545"/></g>

</svg>
