<svg xmlns="http://www.w3.org/2000/svg" width="1024" height="1024" viewBox="0 0 1024 1024" role="img" aria-label="Reference Replica live health watch face">
  <defs>
    <radialGradient id="case" cx="36%" cy="27%" r="78%"><stop stop-color="#ece5db"/><stop offset=".24" stop-color="#8e877f"/><stop offset=".55" stop-color="#302e2c"/><stop offset=".82" stop-color="#a59e94"/><stop offset="1" stop-color="#2b2927"/></radialGradient>
    <radialGradient id="glass" cx="36%" cy="24%" r="78%"><stop stop-color="#24211f"/><stop offset=".34" stop-color="#050505"/><stop offset="1" stop-color="#000"/></radialGradient>
    <linearGradient id="glint" x1="0" y1="0" x2="1" y2="1"><stop stop-color="#fff" stop-opacity=".18"/><stop offset=".32" stop-color="#fff" stop-opacity="0"/><stop offset="1" stop-color="#ff7358" stop-opacity=".04"/></linearGradient>
    <filter id="shadow" x="-30%" y="-30%" width="160%" height="160%"><feDropShadow dx="0" dy="24" stdDeviation="28" flood-color="#000" flood-opacity=".62"/></filter>
    <clipPath id="dialClip"><circle cx="512" cy="512" r="420"/></clipPath>
  </defs>
  <circle cx="512" cy="512" r="482" fill="url(#case)" filter="url(#shadow)"/>
  <circle cx="512" cy="512" r="435" fill="#080706" stroke="#181716" stroke-width="8"/>
  <circle cx="512" cy="512" r="420" fill="url(#glass)"/>
  <g clip-path="url(#dialClip)"><defs><filter id="meter-glow" x="-25%" y="-25%" width="150%" height="150%"><feGaussianBlur stdDeviation="4.5" result="blur"/><feMerge><feMergeNode in="blur"/><feMergeNode in="SourceGraphic"/></feMerge></filter><filter id="icon-glow" x="-80%" y="-80%" width="260%" height="260%"><feGaussianBlur stdDeviation="8" result="blur"/><feMerge><feMergeNode in="blur"/><feMergeNode in="SourceGraphic"/></feMerge></filter></defs><style>[data-ring-icon]{animation:icon-flash .84s ease-in-out infinite;transform-box:fill-box;transform-origin:center}[data-gauge]{animation:meter-flash .84s steps(2,end) infinite}@keyframes icon-flash{0%,38%,100%{opacity:.58;transform:scale(.96)}50%,62%{opacity:1;transform:scale(1.12)}}@keyframes meter-flash{0%,100%{stroke-opacity:.72}50%{stroke-opacity:1}}</style><circle cx="512" cy="512" r="383" fill="none" stroke="#120f0e" stroke-width="68"/><circle cx="512" cy="512" r="348" fill="none" stroke="#332722" stroke-width="3" opacity=".9"/><circle cx="512" cy="512" r="418" fill="none" stroke="#332722" stroke-width="3" opacity=".9"/><path d="M202.1 737.1 A383 383 0 0 1 202.1 286.9" fill="none" stroke="#3a302b" stroke-width="60" stroke-linecap="round" opacity=".78"/><path d="M202.1 737.1 A383 383 0 0 1 202.1 286.9" fill="none" stroke="#ff5a36" stroke-width="60" stroke-linecap="round" pathLength="100" stroke-dasharray="57.0 100" data-gauge="outside_temp_value" filter="url(#meter-glow)"/><path d="M286.9 202.1 A383 383 0 0 1 737.1 202.1" fill="none" stroke="#3a302b" stroke-width="60" stroke-linecap="round" opacity=".78"/><path d="M286.9 202.1 A383 383 0 0 1 737.1 202.1" fill="none" stroke="#ff7358" stroke-width="60" stroke-linecap="round" pathLength="100" stroke-dasharray="48.0 100" data-gauge="ring_heart" filter="url(#meter-glow)"/><path d="M821.9 286.9 A383 383 0 0 1 821.9 737.1" fill="none" stroke="#3a302b" stroke-width="60" stroke-linecap="round" opacity=".78"/><path d="M821.9 286.9 A383 383 0 0 1 821.9 737.1" fill="none" stroke="#e24624" stroke-width="60" stroke-linecap="round" pathLength="100" stroke-dasharray="74.0 100" data-gauge="stress_value" filter="url(#meter-glow)"/><path d="M737.1 821.9 A383 383 0 0 1 286.9 821.9" fill="none" stroke="#3a302b" stroke-width="60" stroke-linecap="round" opacity=".78"/><path d="M737.1 821.9 A383 383 0 0 1 286.9 821.9" fill="none" stroke="#ff5a36" stroke-width="60" stroke-linecap="round" pathLength="100" stroke-dasharray="86.0 100" data-gauge="ring_steps" filter="url(#meter-glow)"/><defs><path id="label-temp" d="M207.6 702.2 A359 359 0 0 1 207.6 321.8"/></defs><text fill="#f4e8df" font-family="Arial Rounded MT Bold,Nunito,Arial,sans-serif" font-size="16" font-weight="800" letter-spacing="1.1"><textPath href="#label-temp" startOffset="50%" text-anchor="middle">TEMP · 60–85°F</textPath></text><g data-ring-icon="true" filter="url(#icon-glow)" style="animation-delay:-0.59s"><circle cx="141.1" cy="611.4" r="27" fill="#070606" stroke="#241b18" stroke-width="5"/><circle cx="141.1" cy="611.4" r="23" fill="#070606" stroke="#ff5a36" stroke-width="3" opacity=".98"/><g transform="rotate(75.0 141.1 611.4)"><g transform="translate(141.1 611.4) scale(0.52)" fill="none" stroke="#ff5a36" stroke-width="7" stroke-linecap="round"><path d="M0-25 V12"/><circle cy="22" r="12" fill="#ff5a36"/><path d="M0-25 A8 8 0 0 1 8-17 V12"/></g></g></g><text x="131.4" y="410.0" text-anchor="middle" dominant-baseline="middle" fill="#f4e8df" font-family="Arial Rounded MT Bold,Nunito,Arial,sans-serif" font-size="29" font-weight="800" transform="rotate(-75.0 131.4 410.0)" data-live="outside_temp">80°</text><defs><path id="label-heart" d="M321.8 207.6 A359 359 0 0 1 702.2 207.6"/></defs><text fill="#f4e8df" font-family="Arial Rounded MT Bold,Nunito,Arial,sans-serif" font-size="16" font-weight="800" letter-spacing="1.1"><textPath href="#label-heart" startOffset="50%" text-anchor="middle">HEART · 60–100</textPath></text><g data-ring-icon="true" filter="url(#icon-glow)" style="animation-delay:-0.81s"><circle cx="412.6" cy="141.1" r="27" fill="#070606" stroke="#241b18" stroke-width="5"/><circle cx="412.6" cy="141.1" r="23" fill="#070606" stroke="#ff7358" stroke-width="3" opacity=".98"/><g transform="rotate(-15.0 412.6 141.1)"><path d="M0 8 C-15-6-31 8-24 24 C-18 36 0 46 0 46 C0 46 18 36 24 24 C31 8 15-6 0 8Z" fill="#ff7358" transform="translate(412 132) scale(0.45)"/></g></g><text x="614.0" y="131.4" text-anchor="middle" dominant-baseline="middle" fill="#f4e8df" font-family="Arial Rounded MT Bold,Nunito,Arial,sans-serif" font-size="29" font-weight="800" transform="rotate(15.0 614.0 131.4)" data-live="heart">78</text><defs><path id="label-stress" d="M816.4 321.8 A359 359 0 0 1 816.4 702.2"/></defs><text fill="#f4e8df" font-family="Arial Rounded MT Bold,Nunito,Arial,sans-serif" font-size="16" font-weight="800" letter-spacing="1.1"><textPath href="#label-stress" startOffset="50%" text-anchor="middle">STRESS · 0–40</textPath></text><g data-ring-icon="true" filter="url(#icon-glow)" style="animation-delay:-0.17s"><circle cx="882.9" cy="412.6" r="27" fill="#070606" stroke="#241b18" stroke-width="5"/><circle cx="882.9" cy="412.6" r="23" fill="#070606" stroke="#ff5a36" stroke-width="3" opacity=".98"/><g transform="rotate(75.0 882.9 412.6)"><path d="M6-27 L-18 6 H-3 L-9 29 L19-8 H4Z" transform="translate(882.9 412.6) scale(0.5)" fill="#ff5a36"/></g></g><text x="892.6" y="614.0" text-anchor="middle" dominant-baseline="middle" fill="#f4e8df" font-family="Arial Rounded MT Bold,Nunito,Arial,sans-serif" font-size="29" font-weight="800" transform="rotate(-75.0 892.6 614.0)" data-live="stress">74</text><defs><path id="label-steps" d="M321.8 816.4 A359 359 0 0 0 702.2 816.4"/></defs><text fill="#f4e8df" font-family="Arial Rounded MT Bold,Nunito,Arial,sans-serif" font-size="16" font-weight="800" letter-spacing="1.1"><textPath href="#label-steps" startOffset="50%" text-anchor="middle">STEPS · 8–10K</textPath></text><g data-ring-icon="true" filter="url(#icon-glow)" style="animation-delay:-0.38s"><circle cx="611.4" cy="882.9" r="27" fill="#070606" stroke="#241b18" stroke-width="5"/><circle cx="611.4" cy="882.9" r="23" fill="#070606" stroke="#ff5a36" stroke-width="3" opacity=".98"/><g transform="rotate(-15.0 611.4 882.9)"><g transform="translate(611 882) rotate(-32) scale(0.46)" fill="#ff5a36"><ellipse cx="-7" cy="-7" rx="9" ry="18"/><ellipse cx="9" cy="10" rx="8" ry="16"/></g></g></g><text x="410.0" y="892.6" text-anchor="middle" dominant-baseline="middle" fill="#f4e8df" font-family="Arial Rounded MT Bold,Nunito,Arial,sans-serif" font-size="24" font-weight="800" transform="rotate(15.0 410.0 892.6)" data-live="ring_steps">8,600</text><line x1="512.0" y1="189.0" x2="512.0" y2="165.0" stroke="#f7f4ed" stroke-width="8" stroke-linecap="round" opacity="1"/><line x1="547.2" y1="176.8" x2="548.3" y2="166.9" stroke="#f7f4ed" stroke-width="3" stroke-linecap="round" opacity="0.55"/><line x1="582.1" y1="182.4" x2="584.1" y2="172.6" stroke="#f7f4ed" stroke-width="3" stroke-linecap="round" opacity="0.55"/><line x1="616.1" y1="191.5" x2="619.2" y2="182.0" stroke="#f7f4ed" stroke-width="3" stroke-linecap="round" opacity="0.55"/><line x1="649.1" y1="204.1" x2="653.1" y2="195.0" stroke="#f7f4ed" stroke-width="3" stroke-linecap="round" opacity="0.55"/><line x1="673.5" y1="232.3" x2="685.5" y2="211.5" stroke="#f7f4ed" stroke-width="8" stroke-linecap="round" opacity="1"/><line x1="710.1" y1="239.4" x2="716.0" y2="231.3" stroke="#f7f4ed" stroke-width="3" stroke-linecap="round" opacity="0.55"/><line x1="737.5" y1="261.6" x2="744.2" y2="254.1" stroke="#f7f4ed" stroke-width="3" stroke-linecap="round" opacity="0.55"/><line x1="762.4" y1="286.5" x2="769.9" y2="279.8" stroke="#f7f4ed" stroke-width="3" stroke-linecap="round" opacity="0.55"/><line x1="784.6" y1="313.9" x2="792.7" y2="308.0" stroke="#f7f4ed" stroke-width="3" stroke-linecap="round" opacity="0.55"/><line x1="791.7" y1="350.5" x2="812.5" y2="338.5" stroke="#f7f4ed" stroke-width="8" stroke-linecap="round" opacity="1"/><line x1="819.9" y1="374.9" x2="829.0" y2="370.9" stroke="#f7f4ed" stroke-width="3" stroke-linecap="round" opacity="0.55"/><line x1="832.5" y1="407.9" x2="842.0" y2="404.8" stroke="#f7f4ed" stroke-width="3" stroke-linecap="round" opacity="0.55"/><line x1="841.6" y1="441.9" x2="851.4" y2="439.9" stroke="#f7f4ed" stroke-width="3" stroke-linecap="round" opacity="0.55"/><line x1="847.2" y1="476.8" x2="857.1" y2="475.7" stroke="#f7f4ed" stroke-width="3" stroke-linecap="round" opacity="0.55"/><line x1="835.0" y1="512.0" x2="859.0" y2="512.0" stroke="#f7f4ed" stroke-width="8" stroke-linecap="round" opacity="1"/><line x1="847.2" y1="547.2" x2="857.1" y2="548.3" stroke="#f7f4ed" stroke-width="3" stroke-linecap="round" opacity="0.55"/><line x1="841.6" y1="582.1" x2="851.4" y2="584.1" stroke="#f7f4ed" stroke-width="3" stroke-linecap="round" opacity="0.55"/><line x1="832.5" y1="616.1" x2="842.0" y2="619.2" stroke="#f7f4ed" stroke-width="3" stroke-linecap="round" opacity="0.55"/><line x1="819.9" y1="649.1" x2="829.0" y2="653.1" stroke="#f7f4ed" stroke-width="3" stroke-linecap="round" opacity="0.55"/><line x1="791.7" y1="673.5" x2="812.5" y2="685.5" stroke="#f7f4ed" stroke-width="8" stroke-linecap="round" opacity="1"/><line x1="784.6" y1="710.1" x2="792.7" y2="716.0" stroke="#f7f4ed" stroke-width="3" stroke-linecap="round" opacity="0.55"/><line x1="762.4" y1="737.5" x2="769.9" y2="744.2" stroke="#f7f4ed" stroke-width="3" stroke-linecap="round" opacity="0.55"/><line x1="737.5" y1="762.4" x2="744.2" y2="769.9" stroke="#f7f4ed" stroke-width="3" stroke-linecap="round" opacity="0.55"/><line x1="710.1" y1="784.6" x2="716.0" y2="792.7" stroke="#f7f4ed" stroke-width="3" stroke-linecap="round" opacity="0.55"/><line x1="673.5" y1="791.7" x2="685.5" y2="812.5" stroke="#f7f4ed" stroke-width="8" stroke-linecap="round" opacity="1"/><line x1="649.1" y1="819.9" x2="653.1" y2="829.0" stroke="#f7f4ed" stroke-width="3" stroke-linecap="round" opacity="0.55"/><line x1="616.1" y1="832.5" x2="619.2" y2="842.0" stroke="#f7f4ed" stroke-width="3" stroke-linecap="round" opacity="0.55"/><line x1="582.1" y1="841.6" x2="584.1" y2="851.4" stroke="#f7f4ed" stroke-width="3" stroke-linecap="round" opacity="0.55"/><line x1="547.2" y1="847.2" x2="548.3" y2="857.1" stroke="#f7f4ed" stroke-width="3" stroke-linecap="round" opacity="0.55"/><line x1="512.0" y1="835.0" x2="512.0" y2="859.0" stroke="#f7f4ed" stroke-width="8" stroke-linecap="round" opacity="1"/><line x1="476.8" y1="847.2" x2="475.7" y2="857.1" stroke="#f7f4ed" stroke-width="3" stroke-linecap="round" opacity="0.55"/><line x1="441.9" y1="841.6" x2="439.9" y2="851.4" stroke="#f7f4ed" stroke-width="3" stroke-linecap="round" opacity="0.55"/><line x1="407.9" y1="832.5" x2="404.8" y2="842.0" stroke="#f7f4ed" stroke-width="3" stroke-linecap="round" opacity="0.55"/><line x1="374.9" y1="819.9" x2="370.9" y2="829.0" stroke="#f7f4ed" stroke-width="3" stroke-linecap="round" opacity="0.55"/><line x1="350.5" y1="791.7" x2="338.5" y2="812.5" stroke="#f7f4ed" stroke-width="8" stroke-linecap="round" opacity="1"/><line x1="313.9" y1="784.6" x2="308.0" y2="792.7" stroke="#f7f4ed" stroke-width="3" stroke-linecap="round" opacity="0.55"/><line x1="286.5" y1="762.4" x2="279.8" y2="769.9" stroke="#f7f4ed" stroke-width="3" stroke-linecap="round" opacity="0.55"/><line x1="261.6" y1="737.5" x2="254.1" y2="744.2" stroke="#f7f4ed" stroke-width="3" stroke-linecap="round" opacity="0.55"/><line x1="239.4" y1="710.1" x2="231.3" y2="716.0" stroke="#f7f4ed" stroke-width="3" stroke-linecap="round" opacity="0.55"/><line x1="232.3" y1="673.5" x2="211.5" y2="685.5" stroke="#f7f4ed" stroke-width="8" stroke-linecap="round" opacity="1"/><line x1="204.1" y1="649.1" x2="195.0" y2="653.1" stroke="#f7f4ed" stroke-width="3" stroke-linecap="round" opacity="0.55"/><line x1="191.5" y1="616.1" x2="182.0" y2="619.2" stroke="#f7f4ed" stroke-width="3" stroke-linecap="round" opacity="0.55"/><line x1="182.4" y1="582.1" x2="172.6" y2="584.1" stroke="#f7f4ed" stroke-width="3" stroke-linecap="round" opacity="0.55"/><line x1="176.8" y1="547.2" x2="166.9" y2="548.3" stroke="#f7f4ed" stroke-width="3" stroke-linecap="round" opacity="0.55"/><line x1="189.0" y1="512.0" x2="165.0" y2="512.0" stroke="#f7f4ed" stroke-width="8" stroke-linecap="round" opacity="1"/><line x1="176.8" y1="476.8" x2="166.9" y2="475.7" stroke="#f7f4ed" stroke-width="3" stroke-linecap="round" opacity="0.55"/><line x1="182.4" y1="441.9" x2="172.6" y2="439.9" stroke="#f7f4ed" stroke-width="3" stroke-linecap="round" opacity="0.55"/><line x1="191.5" y1="407.9" x2="182.0" y2="404.8" stroke="#f7f4ed" stroke-width="3" stroke-linecap="round" opacity="0.55"/><line x1="204.1" y1="374.9" x2="195.0" y2="370.9" stroke="#f7f4ed" stroke-width="3" stroke-linecap="round" opacity="0.55"/><line x1="232.3" y1="350.5" x2="211.5" y2="338.5" stroke="#f7f4ed" stroke-width="8" stroke-linecap="round" opacity="1"/><line x1="239.4" y1="313.9" x2="231.3" y2="308.0" stroke="#f7f4ed" stroke-width="3" stroke-linecap="round" opacity="0.55"/><line x1="261.6" y1="286.5" x2="254.1" y2="279.8" stroke="#f7f4ed" stroke-width="3" stroke-linecap="round" opacity="0.55"/><line x1="286.5" y1="261.6" x2="279.8" y2="254.1" stroke="#f7f4ed" stroke-width="3" stroke-linecap="round" opacity="0.55"/><line x1="313.9" y1="239.4" x2="308.0" y2="231.3" stroke="#f7f4ed" stroke-width="3" stroke-linecap="round" opacity="0.55"/><line x1="350.5" y1="232.3" x2="338.5" y2="211.5" stroke="#f7f4ed" stroke-width="8" stroke-linecap="round" opacity="1"/><line x1="374.9" y1="204.1" x2="370.9" y2="195.0" stroke="#f7f4ed" stroke-width="3" stroke-linecap="round" opacity="0.55"/><line x1="407.9" y1="191.5" x2="404.8" y2="182.0" stroke="#f7f4ed" stroke-width="3" stroke-linecap="round" opacity="0.55"/><line x1="441.9" y1="182.4" x2="439.9" y2="172.6" stroke="#f7f4ed" stroke-width="3" stroke-linecap="round" opacity="0.55"/><line x1="476.8" y1="176.8" x2="475.7" y2="166.9" stroke="#f7f4ed" stroke-width="3" stroke-linecap="round" opacity="0.55"/><text x="512.0" y="226.0" text-anchor="middle" fill="#f4e8df" font-family="Arial Rounded MT Bold,Nunito,Inter,Arial,sans-serif" font-size="28" font-weight="700" letter-spacing="0" opacity="1">12</text><text x="655.0" y="264.31673451765056" text-anchor="middle" fill="#f4e8df" font-family="Arial Rounded MT Bold,Nunito,Inter,Arial,sans-serif" font-size="28" font-weight="700" letter-spacing="0" opacity="1">1</text><text x="759.6832654823495" y="369.0" text-anchor="middle" fill="#f4e8df" font-family="Arial Rounded MT Bold,Nunito,Inter,Arial,sans-serif" font-size="28" font-weight="700" letter-spacing="0" opacity="1">2</text><text x="798.0" y="512.0" text-anchor="middle" fill="#f4e8df" font-family="Arial Rounded MT Bold,Nunito,Inter,Arial,sans-serif" font-size="28" font-weight="700" letter-spacing="0" opacity="1">3</text><text x="759.6832654823495" y="655.0" text-anchor="middle" fill="#f4e8df" font-family="Arial Rounded MT Bold,Nunito,Inter,Arial,sans-serif" font-size="28" font-weight="700" letter-spacing="0" opacity="1">4</text><text x="655.0" y="759.6832654823495" text-anchor="middle" fill="#f4e8df" font-family="Arial Rounded MT Bold,Nunito,Inter,Arial,sans-serif" font-size="28" font-weight="700" letter-spacing="0" opacity="1">5</text><text x="512.0" y="798.0" text-anchor="middle" fill="#f4e8df" font-family="Arial Rounded MT Bold,Nunito,Inter,Arial,sans-serif" font-size="28" font-weight="700" letter-spacing="0" opacity="1">6</text><text x="369.00000000000006" y="759.6832654823495" text-anchor="middle" fill="#f4e8df" font-family="Arial Rounded MT Bold,Nunito,Inter,Arial,sans-serif" font-size="28" font-weight="700" letter-spacing="0" opacity="1">7</text><text x="264.3167345176505" y="655.0" text-anchor="middle" fill="#f4e8df" font-family="Arial Rounded MT Bold,Nunito,Inter,Arial,sans-serif" font-size="28" font-weight="700" letter-spacing="0" opacity="1">8</text><text x="226.0" y="512.0" text-anchor="middle" fill="#f4e8df" font-family="Arial Rounded MT Bold,Nunito,Inter,Arial,sans-serif" font-size="28" font-weight="700" letter-spacing="0" opacity="1">9</text><text x="264.31673451765056" y="369.0" text-anchor="middle" fill="#f4e8df" font-family="Arial Rounded MT Bold,Nunito,Inter,Arial,sans-serif" font-size="28" font-weight="700" letter-spacing="0" opacity="1">10</text><text x="368.9999999999999" y="264.3167345176506" text-anchor="middle" fill="#f4e8df" font-family="Arial Rounded MT Bold,Nunito,Inter,Arial,sans-serif" font-size="28" font-weight="700" letter-spacing="0" opacity="1">11</text><line x1="654.0" y1="430.0" x2="676.5" y2="417.0" stroke="#797671" stroke-width="6" stroke-linecap="round" opacity="0.92" data-inner-tick="true"/><line x1="671.0" y1="441.2" x2="685.6" y2="434.7" stroke="#797671" stroke-width="4" stroke-linecap="round" opacity="0.72" data-inner-tick="true"/><line x1="677.5" y1="458.2" x2="692.7" y2="453.3" stroke="#797671" stroke-width="4" stroke-linecap="round" opacity="0.72" data-inner-tick="true"/><line x1="682.2" y1="475.8" x2="697.8" y2="472.5" stroke="#797671" stroke-width="4" stroke-linecap="round" opacity="0.72" data-inner-tick="true"/><line x1="685.0" y1="493.8" x2="701.0" y2="492.1" stroke="#797671" stroke-width="4" stroke-linecap="round" opacity="0.72" data-inner-tick="true"/><line x1="676.0" y1="512.0" x2="702.0" y2="512.0" stroke="#797671" stroke-width="6" stroke-linecap="round" opacity="0.92" data-inner-tick="true"/><line x1="685.0" y1="530.2" x2="701.0" y2="531.9" stroke="#797671" stroke-width="4" stroke-linecap="round" opacity="0.72" data-inner-tick="true"/><line x1="682.2" y1="548.2" x2="697.8" y2="551.5" stroke="#797671" stroke-width="4" stroke-linecap="round" opacity="0.72" data-inner-tick="true"/><line x1="677.5" y1="565.8" x2="692.7" y2="570.7" stroke="#797671" stroke-width="4" stroke-linecap="round" opacity="0.72" data-inner-tick="true"/><line x1="671.0" y1="582.8" x2="685.6" y2="589.3" stroke="#797671" stroke-width="4" stroke-linecap="round" opacity="0.72" data-inner-tick="true"/><line x1="654.0" y1="594.0" x2="676.5" y2="607.0" stroke="#797671" stroke-width="6" stroke-linecap="round" opacity="0.92" data-inner-tick="true"/><line x1="652.8" y1="614.3" x2="665.7" y2="623.7" stroke="#797671" stroke-width="4" stroke-linecap="round" opacity="0.72" data-inner-tick="true"/><line x1="641.3" y1="628.4" x2="653.2" y2="639.1" stroke="#797671" stroke-width="4" stroke-linecap="round" opacity="0.72" data-inner-tick="true"/><line x1="628.4" y1="641.3" x2="639.1" y2="653.2" stroke="#797671" stroke-width="4" stroke-linecap="round" opacity="0.72" data-inner-tick="true"/><line x1="614.3" y1="652.8" x2="623.7" y2="665.7" stroke="#797671" stroke-width="4" stroke-linecap="round" opacity="0.72" data-inner-tick="true"/><line x1="594.0" y1="654.0" x2="607.0" y2="676.5" stroke="#797671" stroke-width="6" stroke-linecap="round" opacity="0.92" data-inner-tick="true"/><line x1="582.8" y1="671.0" x2="589.3" y2="685.6" stroke="#797671" stroke-width="4" stroke-linecap="round" opacity="0.72" data-inner-tick="true"/><line x1="565.8" y1="677.5" x2="570.7" y2="692.7" stroke="#797671" stroke-width="4" stroke-linecap="round" opacity="0.72" data-inner-tick="true"/><line x1="548.2" y1="682.2" x2="551.5" y2="697.8" stroke="#797671" stroke-width="4" stroke-linecap="round" opacity="0.72" data-inner-tick="true"/><line x1="530.2" y1="685.0" x2="531.9" y2="701.0" stroke="#797671" stroke-width="4" stroke-linecap="round" opacity="0.72" data-inner-tick="true"/><line x1="512.0" y1="676.0" x2="512.0" y2="702.0" stroke="#797671" stroke-width="6" stroke-linecap="round" opacity="0.92" data-inner-tick="true"/><line x1="493.8" y1="685.0" x2="492.1" y2="701.0" stroke="#797671" stroke-width="4" stroke-linecap="round" opacity="0.72" data-inner-tick="true"/><line x1="475.8" y1="682.2" x2="472.5" y2="697.8" stroke="#797671" stroke-width="4" stroke-linecap="round" opacity="0.72" data-inner-tick="true"/><line x1="458.2" y1="677.5" x2="453.3" y2="692.7" stroke="#797671" stroke-width="4" stroke-linecap="round" opacity="0.72" data-inner-tick="true"/><line x1="441.2" y1="671.0" x2="434.7" y2="685.6" stroke="#797671" stroke-width="4" stroke-linecap="round" opacity="0.72" data-inner-tick="true"/><line x1="430.0" y1="654.0" x2="417.0" y2="676.5" stroke="#797671" stroke-width="6" stroke-linecap="round" opacity="0.92" data-inner-tick="true"/><line x1="409.7" y1="652.8" x2="400.3" y2="665.7" stroke="#797671" stroke-width="4" stroke-linecap="round" opacity="0.72" data-inner-tick="true"/><line x1="395.6" y1="641.3" x2="384.9" y2="653.2" stroke="#797671" stroke-width="4" stroke-linecap="round" opacity="0.72" data-inner-tick="true"/><line x1="382.7" y1="628.4" x2="370.8" y2="639.1" stroke="#797671" stroke-width="4" stroke-linecap="round" opacity="0.72" data-inner-tick="true"/><line x1="371.2" y1="614.3" x2="358.3" y2="623.7" stroke="#797671" stroke-width="4" stroke-linecap="round" opacity="0.72" data-inner-tick="true"/><line x1="370.0" y1="594.0" x2="347.5" y2="607.0" stroke="#797671" stroke-width="6" stroke-linecap="round" opacity="0.92" data-inner-tick="true"/><line x1="353.0" y1="582.8" x2="338.4" y2="589.3" stroke="#797671" stroke-width="4" stroke-linecap="round" opacity="0.72" data-inner-tick="true"/><line x1="346.5" y1="565.8" x2="331.3" y2="570.7" stroke="#797671" stroke-width="4" stroke-linecap="round" opacity="0.72" data-inner-tick="true"/><line x1="341.8" y1="548.2" x2="326.2" y2="551.5" stroke="#797671" stroke-width="4" stroke-linecap="round" opacity="0.72" data-inner-tick="true"/><line x1="339.0" y1="530.2" x2="323.0" y2="531.9" stroke="#797671" stroke-width="4" stroke-linecap="round" opacity="0.72" data-inner-tick="true"/><line x1="348.0" y1="512.0" x2="322.0" y2="512.0" stroke="#797671" stroke-width="6" stroke-linecap="round" opacity="0.92" data-inner-tick="true"/><line x1="339.0" y1="493.8" x2="323.0" y2="492.1" stroke="#797671" stroke-width="4" stroke-linecap="round" opacity="0.72" data-inner-tick="true"/><line x1="341.8" y1="475.8" x2="326.2" y2="472.5" stroke="#797671" stroke-width="4" stroke-linecap="round" opacity="0.72" data-inner-tick="true"/><line x1="346.5" y1="458.2" x2="331.3" y2="453.3" stroke="#797671" stroke-width="4" stroke-linecap="round" opacity="0.72" data-inner-tick="true"/><line x1="353.0" y1="441.2" x2="338.4" y2="434.7" stroke="#797671" stroke-width="4" stroke-linecap="round" opacity="0.72" data-inner-tick="true"/><line x1="370.0" y1="430.0" x2="347.5" y2="417.0" stroke="#797671" stroke-width="6" stroke-linecap="round" opacity="0.92" data-inner-tick="true"/><text x="654.0" y="512.0" text-anchor="middle" fill="#d8d4cd" font-family="Arial Rounded MT Bold,Nunito,Inter,Arial,sans-serif" font-size="21" font-weight="700" letter-spacing="0" opacity="1">20</text><text x="612.4091629284898" y="612.4091629284898" text-anchor="middle" fill="#d8d4cd" font-family="Arial Rounded MT Bold,Nunito,Inter,Arial,sans-serif" font-size="21" font-weight="700" letter-spacing="0" opacity="1">25</text><text x="512.0" y="654.0" text-anchor="middle" fill="#d8d4cd" font-family="Arial Rounded MT Bold,Nunito,Inter,Arial,sans-serif" font-size="21" font-weight="700" letter-spacing="0" opacity="1">30</text><text x="411.59083707151024" y="612.4091629284898" text-anchor="middle" fill="#d8d4cd" font-family="Arial Rounded MT Bold,Nunito,Inter,Arial,sans-serif" font-size="21" font-weight="700" letter-spacing="0" opacity="1">35</text><text x="370.0" y="512.0" text-anchor="middle" fill="#d8d4cd" font-family="Arial Rounded MT Bold,Nunito,Inter,Arial,sans-serif" font-size="21" font-weight="700" letter-spacing="0" opacity="1">40</text><text x="512" y="331" text-anchor="middle" fill="#ff5a36" font-family="Arial Rounded MT Bold,Nunito,Inter,Arial,sans-serif" font-size="34" font-weight="650" letter-spacing="2" opacity="1" data-live="date">AUG 20</text><text x="512" y="380" text-anchor="middle" fill="#ff5a36" font-family="Arial Rounded MT Bold,Nunito,Inter,Arial,sans-serif" font-size="32" font-weight="650" letter-spacing="0.8" opacity="1" data-live="time_seconds_12">10:10:30 PM</text><text x="512" y="425" text-anchor="middle" fill="#ff5a36" font-family="Arial Rounded MT Bold,Nunito,Inter,Arial,sans-serif" font-size="32" font-weight="650" letter-spacing="0" opacity="1" data-live="temperature_face">77°</text><g>
      <g data-hand="hour" transform="rotate(300 512 512)"><path d="M492 534 L500 325 Q512 298 524 325 L532 534Z" fill="#f7f4ed"/></g>
      <g data-hand="minute" transform="rotate(55 512 512)"><path d="M500 538 L504 192 Q512 166 520 192 L524 538Z" fill="#f7f4ed"/></g>
      <g data-hand="second" transform="rotate(210 512 512)"><line x1="512" y1="584" x2="512" y2="155" stroke="#ff5a36" stroke-width="6" stroke-linecap="round"/></g>
      <circle cx="512" cy="512" r="24" fill="#ff5a36"/><circle cx="512" cy="512" r="8" fill="#111"/>
    </g></g>
  <circle cx="512" cy="512" r="420" fill="url(#glint)" pointer-events="none"/>
  <path d="M207 329 A350 350 0 0 1 418 174" fill="none" stroke="#fff" stroke-width="7" stroke-linecap="round" opacity=".12"/>
</svg>
