<svg xmlns="http://www.w3.org/2000/svg" width="1024" height="1024" viewBox="0 0 1024 1024" role="img" aria-label="Night Shift live health watch face">
  <defs>
    <radialGradient id="case" cx="36%" cy="27%" r="78%"><stop stop-color="#ece5db"/><stop offset=".24" stop-color="#8e877f"/><stop offset=".55" stop-color="#302e2c"/><stop offset=".82" stop-color="#a59e94"/><stop offset="1" stop-color="#2b2927"/></radialGradient>
    <radialGradient id="glass" cx="36%" cy="24%" r="78%"><stop stop-color="#24211f"/><stop offset=".34" stop-color="#050508"/><stop offset="1" stop-color="#000"/></radialGradient>
    <linearGradient id="glint" x1="0" y1="0" x2="1" y2="1"><stop stop-color="#fff" stop-opacity=".18"/><stop offset=".32" stop-color="#fff" stop-opacity="0"/><stop offset="1" stop-color="#a88cff" stop-opacity=".04"/></linearGradient>
    <filter id="shadow" x="-30%" y="-30%" width="160%" height="160%"><feDropShadow dx="0" dy="24" stdDeviation="28" flood-color="#000" flood-opacity=".62"/></filter>
    <clipPath id="dialClip"><circle cx="512" cy="512" r="420"/></clipPath>
  </defs>
  <circle cx="512" cy="512" r="482" fill="url(#case)" filter="url(#shadow)"/>
  <circle cx="512" cy="512" r="435" fill="#080706" stroke="#181716" stroke-width="8"/>
  <circle cx="512" cy="512" r="420" fill="url(#glass)"/>
  <g clip-path="url(#dialClip)"><circle cx="230" cy="270" r="3" fill="#fff" opacity=".4"/><circle cx="740" cy="255" r="4" fill="#fff" opacity=".4"/><circle cx="790" cy="390" r="2" fill="#fff" opacity=".4"/><circle cx="286" cy="430" r="3" fill="#fff" opacity=".4"/><circle cx="685" cy="480" r="3" fill="#fff" opacity=".4"/><text x="512" y="315" text-anchor="middle" fill="#fff" font-family="Arial Rounded MT Bold,Nunito,Inter,Arial,sans-serif" font-size="122" font-weight="450" letter-spacing="0" opacity="1" data-live="time">10:09</text><text x="512" y="365" text-anchor="middle" fill="#a88cff" font-family="Arial Rounded MT Bold,Nunito,Inter,Arial,sans-serif" font-size="20" font-weight="650" letter-spacing="3" opacity="1" data-live="day">THU / NIGHT MODE</text><text x="230" y="520" text-anchor="start" fill="#a88cff" font-family="Arial Rounded MT Bold,Nunito,Inter,Arial,sans-serif" font-size="64" font-weight="650" letter-spacing="0" opacity="1" data-live="sleep">7H 42M</text><text x="230" y="558" text-anchor="start" fill="#96919e" font-family="Arial Rounded MT Bold,Nunito,Inter,Arial,sans-serif" font-size="18" font-weight="650" letter-spacing="4" opacity="1">LAST NIGHT</text><rect x="220" y="620" width="16" height="45" rx="8" fill="#a88cff" opacity="0.22"/><rect x="244" y="602" width="16" height="63" rx="8" fill="#a88cff" opacity="0.33999999999999997"/><rect x="268" y="584" width="16" height="81" rx="8" fill="#a88cff" opacity="0.45999999999999996"/><rect x="292" y="566" width="16" height="99" rx="8" fill="#a88cff" opacity="0.58"/><rect x="316" y="620" width="16" height="45" rx="8" fill="#a88cff" opacity="0.7"/><rect x="340" y="602" width="16" height="63" rx="8" fill="#a88cff" opacity="0.22"/><rect x="364" y="584" width="16" height="81" rx="8" fill="#a88cff" opacity="0.33999999999999997"/><rect x="388" y="566" width="16" height="99" rx="8" fill="#a88cff" opacity="0.45999999999999996"/><rect x="412" y="620" width="16" height="45" rx="8" fill="#a88cff" opacity="0.58"/><rect x="436" y="602" width="16" height="63" rx="8" fill="#a88cff" opacity="0.7"/><rect x="460" y="584" width="16" height="81" rx="8" fill="#a88cff" opacity="0.22"/><rect x="484" y="566" width="16" height="99" rx="8" fill="#a88cff" opacity="0.33999999999999997"/><rect x="508" y="620" width="16" height="45" rx="8" fill="#a88cff" opacity="0.45999999999999996"/><rect x="532" y="602" width="16" height="63" rx="8" fill="#a88cff" opacity="0.58"/><rect x="556" y="584" width="16" height="81" rx="8" fill="#a88cff" opacity="0.7"/><rect x="580" y="566" width="16" height="99" rx="8" fill="#a88cff" opacity="0.22"/><rect x="604" y="620" width="16" height="45" rx="8" fill="#a88cff" opacity="0.33999999999999997"/><rect x="628" y="602" width="16" height="63" rx="8" fill="#a88cff" opacity="0.45999999999999996"/><rect x="652" y="584" width="16" height="81" rx="8" fill="#a88cff" opacity="0.58"/><rect x="676" y="566" width="16" height="99" rx="8" fill="#a88cff" opacity="0.7"/><rect x="700" y="620" width="16" height="45" rx="8" fill="#a88cff" opacity="0.22"/><rect x="724" y="602" width="16" height="63" rx="8" fill="#a88cff" opacity="0.33999999999999997"/><rect x="748" y="584" width="16" height="81" rx="8" fill="#a88cff" opacity="0.45999999999999996"/><rect x="772" y="566" width="16" height="99" rx="8" fill="#a88cff" opacity="0.58"/><rect x="796" y="620" width="16" height="45" rx="8" fill="#a88cff" opacity="0.7"/><g><rect x="252" y="724" width="240" height="92" rx="46" fill="#171513" opacity=".98"/><text x="286" y="761" text-anchor="start" fill="#a7a39b" font-family="Arial Rounded MT Bold,Nunito,Inter,Arial,sans-serif" font-size="18" font-weight="700" letter-spacing="1.4" opacity="1">RECOVERY</text><text x="460" y="786" text-anchor="end" fill="#ff684f" font-family="Arial Rounded MT Bold,Nunito,Inter,Arial,sans-serif" font-size="35" font-weight="750" letter-spacing="0" opacity="1" data-live="recovery">82</text></g><g><rect x="532" y="724" width="240" height="92" rx="46" fill="#171513" opacity=".98"/><text x="566" y="761" text-anchor="start" fill="#a7a39b" font-family="Arial Rounded MT Bold,Nunito,Inter,Arial,sans-serif" font-size="18" font-weight="700" letter-spacing="1.4" opacity="1">REST</text><text x="740" y="786" text-anchor="end" fill="#ff684f" font-family="Arial Rounded MT Bold,Nunito,Inter,Arial,sans-serif" font-size="35" font-weight="750" letter-spacing="0" opacity="1" data-live="resting">54</text></g></g>
  <circle cx="512" cy="512" r="420" fill="url(#glint)" pointer-events="none"/>
  <path d="M207 329 A350 350 0 0 1 418 174" fill="none" stroke="#fff" stroke-width="7" stroke-linecap="round" opacity=".12"/>
</svg>
